<svg width="132" height="27" viewBox="0 0 132 27" fill="none" xmlns="http://www.w3.org/2000/svg">
<path d="M49.215 25.1181C47.6791 25.1181 46.2353 24.8416 44.8837 24.2887C43.5526 23.7153 42.3751 22.9166 41.3512 21.8927C40.3477 20.8687 39.5593 19.6912 38.9859 18.3601C38.433 17.0085 38.1565 15.5545 38.1565 13.9981C38.1565 12.4213 38.4432 10.9673 39.0166 9.63617C39.59 8.28458 40.3887 7.10706 41.4126 6.1036C42.4365 5.07967 43.6345 4.29124 45.0066 3.73831C46.3787 3.16491 47.8634 2.87821 49.4607 2.87821C51.2424 2.87821 52.8807 3.21611 54.3756 3.8919C55.8706 4.54722 57.1095 5.479 58.0925 6.68724L55.2664 9.5133C54.5906 8.63272 53.751 7.95692 52.7476 7.48591C51.7441 7.0149 50.6383 6.7794 49.43 6.7794C48.0579 6.7794 46.8395 7.08658 45.7746 7.70094C44.7302 8.29482 43.911 9.13445 43.3171 10.2198C42.7232 11.2847 42.4263 12.5339 42.4263 13.9674C42.4263 15.4009 42.713 16.6706 43.2864 17.7764C43.8803 18.8618 44.679 19.7117 45.6824 20.326C46.7063 20.9404 47.8736 21.2476 49.1843 21.2476C50.5359 21.2476 51.6929 21.0018 52.6554 20.5104C53.6179 19.9984 54.3551 19.2612 54.8671 18.2987C55.3791 17.3157 55.635 16.1177 55.635 14.7046L58.369 16.5784L48.9385 16.4863V12.8616H59.9356V13.4452C59.9356 16.0255 59.4748 18.186 58.5533 19.9267C57.6317 21.6469 56.362 22.9473 54.7442 23.8279C53.1469 24.688 51.3038 25.1181 49.215 25.1181Z" fill="white"/>
<path d="M62.2493 24.8109V9.97407H66.2733V24.8109H62.2493ZM66.2733 16.6092L64.7067 15.5648C64.891 13.7421 65.4235 12.3086 66.304 11.2642C67.1846 10.1993 68.4543 9.66689 70.1131 9.66689C70.8298 9.66689 71.4749 9.78976 72.0483 10.0355C72.6217 10.2608 73.1439 10.6396 73.6149 11.1721L71.0961 14.0596C70.8708 13.8138 70.5943 13.6295 70.2667 13.5066C69.9595 13.3838 69.6011 13.3223 69.1915 13.3223C68.3314 13.3223 67.6249 13.5988 67.072 14.1517C66.5395 14.6842 66.2733 15.5033 66.2733 16.6092Z" fill="white"/>
<path d="M80.3527 25.1181C79.0011 25.1181 77.7827 24.7802 76.6973 24.1044C75.6119 23.4286 74.7621 22.507 74.1477 21.3397C73.5333 20.1725 73.2262 18.8618 73.2262 17.4078C73.2262 15.9334 73.5333 14.6125 74.1477 13.4452C74.7621 12.2779 75.6119 11.3564 76.6973 10.6806C77.7827 10.0048 79.0011 9.66689 80.3527 9.66689C81.4176 9.66689 82.3699 9.88192 83.2095 10.312C84.0491 10.742 84.7147 11.3461 85.2062 12.1243C85.7182 12.882 85.9946 13.7421 86.0356 14.7046V20.0496C85.9946 21.0326 85.7182 21.9029 85.2062 22.6606C84.7147 23.4183 84.0491 24.0224 83.2095 24.473C82.3699 24.903 81.4176 25.1181 80.3527 25.1181ZM81.09 21.4012C82.2163 21.4012 83.1276 21.0326 83.8239 20.2953C84.5201 19.5376 84.8683 18.5649 84.8683 17.3771C84.8683 16.5989 84.7045 15.9129 84.3768 15.319C84.0696 14.7046 83.6293 14.2336 83.0559 13.906C82.503 13.5578 81.8477 13.3838 81.09 13.3838C80.3527 13.3838 79.6974 13.5578 79.124 13.906C78.5711 14.2336 78.1308 14.7046 77.8031 15.319C77.496 15.9129 77.3424 16.5989 77.3424 17.3771C77.3424 18.1758 77.496 18.8823 77.8031 19.4967C78.1308 20.0905 78.5711 20.5615 79.124 20.9097C79.6974 21.2373 80.3527 21.4012 81.09 21.4012ZM84.6533 24.8109V20.8175L85.2983 17.1928L84.6533 13.6295V9.97407H88.6466V24.8109H84.6533Z" fill="white"/>
<path d="M98.0122 25.1181C96.6402 25.1181 95.4114 24.7802 94.3261 24.1044C93.2407 23.4286 92.3806 22.507 91.7458 21.3397C91.1314 20.1725 90.8242 18.8618 90.8242 17.4078C90.8242 15.9334 91.1314 14.6125 91.7458 13.4452C92.3806 12.2779 93.2305 11.3564 94.2954 10.6806C95.3807 10.0048 96.6197 9.66689 98.0122 9.66689C99.0771 9.66689 100.029 9.88192 100.869 10.312C101.729 10.742 102.415 11.3461 102.927 12.1243C103.46 12.882 103.746 13.7421 103.787 14.7046V19.9881C103.746 20.9506 103.47 21.821 102.958 22.5992C102.446 23.3774 101.76 23.9917 100.9 24.4423C100.04 24.8928 99.0771 25.1181 98.0122 25.1181ZM98.688 21.4012C99.4457 21.4012 100.101 21.2373 100.654 20.9097C101.227 20.5615 101.668 20.0905 101.975 19.4967C102.303 18.8823 102.466 18.1758 102.466 17.3771C102.466 16.5989 102.303 15.9129 101.975 15.319C101.668 14.7046 101.227 14.2336 100.654 13.906C100.101 13.5578 99.456 13.3838 98.7188 13.3838C97.961 13.3838 97.2955 13.5578 96.7221 13.906C96.1692 14.2541 95.7289 14.7251 95.4012 15.319C95.094 15.9129 94.9404 16.5989 94.9404 17.3771C94.9404 18.1758 95.094 18.8823 95.4012 19.4967C95.7289 20.0905 96.1794 20.5615 96.7528 20.9097C97.3262 21.2373 97.9713 21.4012 98.688 21.4012ZM106.245 24.8109H102.251V20.8175L102.896 17.1928L102.221 13.6295V2.60175H106.245V24.8109Z" fill="white"/>
<path d="M109.344 24.8109V9.97407H113.399V24.8109H109.344ZM111.371 7.57806C110.716 7.57806 110.173 7.36304 109.743 6.93299C109.313 6.48246 109.098 5.92953 109.098 5.27421C109.098 4.63937 109.313 4.09669 109.743 3.64616C110.173 3.19563 110.716 2.97036 111.371 2.97036C112.047 2.97036 112.59 3.19563 112.999 3.64616C113.429 4.09669 113.644 4.63937 113.644 5.27421C113.644 5.92953 113.429 6.48246 112.999 6.93299C112.59 7.36304 112.047 7.57806 111.371 7.57806Z" fill="white"/>
<path d="M122.708 25.1181C121.356 25.1181 120.138 24.7802 119.052 24.1044C117.967 23.4286 117.117 22.507 116.503 21.3397C115.888 20.1725 115.581 18.8618 115.581 17.4078C115.581 15.9334 115.888 14.6125 116.503 13.4452C117.117 12.2779 117.967 11.3564 119.052 10.6806C120.138 10.0048 121.356 9.66689 122.708 9.66689C123.773 9.66689 124.725 9.88192 125.564 10.312C126.404 10.742 127.07 11.3461 127.561 12.1243C128.073 12.882 128.349 13.7421 128.39 14.7046V20.0496C128.349 21.0326 128.073 21.9029 127.561 22.6606C127.07 23.4183 126.404 24.0224 125.564 24.473C124.725 24.903 123.773 25.1181 122.708 25.1181ZM123.445 21.4012C124.571 21.4012 125.482 21.0326 126.179 20.2953C126.875 19.5376 127.223 18.5649 127.223 17.3771C127.223 16.5989 127.059 15.9129 126.732 15.319C126.424 14.7046 125.984 14.2336 125.411 13.906C124.858 13.5578 124.203 13.3838 123.445 13.3838C122.708 13.3838 122.052 13.5578 121.479 13.906C120.926 14.2336 120.486 14.7046 120.158 15.319C119.851 15.9129 119.697 16.5989 119.697 17.3771C119.697 18.1758 119.851 18.8823 120.158 19.4967C120.486 20.0905 120.926 20.5615 121.479 20.9097C122.052 21.2373 122.708 21.4012 123.445 21.4012ZM127.008 24.8109V20.8175L127.653 17.1928L127.008 13.6295V9.97407H131.001V24.8109H127.008Z" fill="white"/>
<path fill-rule="evenodd" clip-rule="evenodd" d="M23.334 26.8001C27.0885 24.1224 29.5366 19.7312 29.5366 14.7683C29.5366 6.61198 22.9246 0 14.7683 0C6.61198 0 0 6.61198 0 14.7683C0 19.8282 2.5447 24.2938 6.42415 26.9551L8.88739 24.4906C9.53239 25.26 10.2518 25.8433 11.0457 26.2404C11.8643 26.6376 12.8442 26.8361 13.9854 26.8361C15.3994 26.8361 16.5033 26.4886 17.2972 25.7936C18.1158 25.0987 18.5251 24.1183 18.5251 22.8524V21.7096C18.1376 22.0196 17.7035 22.2889 17.2227 22.5173C16.2304 22.9889 15.1265 23.2247 13.9109 23.2247C12.2488 23.2247 10.7728 22.8276 9.48277 22.0333C8.19278 21.2391 7.17567 20.1594 6.43144 18.7942C5.68721 17.4291 5.31509 15.915 5.31509 14.2521C5.31509 12.5643 5.68721 11.0502 6.43144 9.70988C7.17567 8.34474 8.19278 7.27746 9.48277 6.50802C10.7728 5.71376 12.2488 5.31663 13.9109 5.31663C15.1513 5.31663 16.2553 5.55242 17.2227 6.02401C17.7502 6.26147 18.2215 6.55502 18.6368 6.90467V5.68894H24.2185V22.7035C24.2185 24.2376 23.9236 25.6032 23.334 26.8001ZM17.0367 17.6401C16.4661 17.9876 15.7839 18.1613 14.9901 18.1613C14.1962 18.1613 13.5016 17.9876 12.9062 17.6401C12.3356 17.2926 11.8891 16.821 11.5666 16.2253C11.2441 15.6048 11.0829 14.947 11.0829 14.2521C11.0829 13.5074 11.2441 12.8373 11.5666 12.2416C11.8891 11.6459 12.3481 11.1743 12.9434 10.8268C13.5388 10.4793 14.221 10.3056 14.9901 10.3056C15.7839 10.3056 16.4661 10.4793 17.0367 10.8268C17.6321 11.1743 18.0786 11.6459 18.3763 12.2416C18.6988 12.8373 18.8601 13.5074 18.8601 14.2521C18.8601 14.9967 18.6988 15.6668 18.3763 16.2625C18.0786 16.8334 17.6321 17.2926 17.0367 17.6401Z" fill="url(#paint0_linear_151_1109)"/>
<defs>
<linearGradient id="paint0_linear_151_1109" x1="0" y1="0" x2="33.118" y2="4.79386" gradientUnits="userSpaceOnUse">
<stop stop-color="#FF9483"/>
<stop offset="0.0001" stop-color="#FFCBA4"/>
<stop offset="1" stop-color="#8479F9"/>
</linearGradient>
</defs>
</svg>
