<svg width="111" height="111" viewBox="0 0 111 111" fill="none" xmlns="http://www.w3.org/2000/svg">
<path d="M55.5 111C86.1518 111 111 86.1518 111 55.5C111 24.8482 86.1518 0 55.5 0C24.8482 0 0 24.8482 0 55.5C0 86.1518 24.8482 111 55.5 111Z" fill="#FFD93B"/>
<mask id="mask0_151_913" style="mask-type:alpha" maskUnits="userSpaceOnUse" x="0" y="0" width="111" height="111">
<path d="M55.5 111C86.1518 111 111 86.1518 111 55.5C111 24.8482 86.1518 0 55.5 0C24.8482 0 0 24.8482 0 55.5C0 86.1518 24.8482 111 55.5 111Z" fill="#FFD93B"/>
</mask>
<g mask="url(#mask0_151_913)">
<g filter="url(#filter0_f_151_913)">
<path d="M110.998 55.5002C110.998 86.1639 86.1446 111 55.4982 111C38.0504 111 22.4757 102.953 12.2949 90.3437C21.8166 98.0444 33.9399 102.64 47.1385 102.64C77.7849 102.64 102.639 77.8042 102.639 47.1405C102.639 33.9419 98.0424 21.8186 90.3418 12.2969C102.933 22.4777 110.998 38.0523 110.998 55.5002Z" fill="#F4C534"/>
</g>
</g>
<path d="M72.0725 83.4234C72.0725 85.0433 70.7787 86.3129 69.183 86.3129H41.825C40.2294 86.3129 38.9355 85.0398 38.9355 83.4234C38.9355 81.8278 40.2294 80.5339 41.825 80.5339H69.183C70.7752 80.5339 72.0725 81.8278 72.0725 83.4234Z" fill="#3E4347"/>
<path d="M24.2397 56.7314C25.596 55.9335 29.6093 60.2348 35.9121 60.4707C42.4368 60.7135 46.2281 55.9335 47.5844 56.7314C49.2737 57.3106 46.9704 68.3413 35.9121 68.3829C24.8572 68.3413 22.5504 57.3106 24.2397 56.7314Z" fill="#3E4347"/>
<path d="M21.6382 51.882C20.3791 51.6809 19.5188 50.4945 19.7235 49.2319C19.9281 47.9728 21.0936 47.109 22.3736 47.3172C35.3745 49.4054 39.3254 40.1195 39.3635 40.0259C39.8422 38.843 41.1881 38.2741 42.3779 38.7563C43.5607 39.2385 44.1296 40.5878 43.6474 41.7706C41.0389 48.1601 32.8458 53.6823 21.6382 51.882Z" fill="#E9B02C"/>
<path d="M86.7605 56.7314C85.4042 55.9335 81.3909 60.2348 75.0881 60.4707C68.5634 60.7135 64.7721 55.9335 63.4158 56.7314C61.7265 57.3106 64.0298 68.3413 75.0881 68.3829C86.1431 68.3413 88.4498 57.3106 86.7605 56.7314Z" fill="#3E4347"/>
<path d="M67.3513 41.7671C66.8691 40.5843 67.438 39.2349 68.6208 38.7528C69.8002 38.2706 71.1461 38.836 71.6317 40.0119C71.8051 40.4282 75.7769 49.381 88.6251 47.3171C89.8981 47.109 91.074 47.9727 91.2752 49.2319C91.4764 50.4945 90.6196 51.6808 89.3605 51.882C78.2327 53.6719 69.9806 48.2155 67.3513 41.7671Z" fill="#E9B02C"/>
<defs>
<filter id="filter0_f_151_913" x="0.294922" y="0.296875" width="122.703" height="122.703" filterUnits="userSpaceOnUse" color-interpolation-filters="sRGB">
<feFlood flood-opacity="0" result="BackgroundImageFix"/>
<feBlend mode="normal" in="SourceGraphic" in2="BackgroundImageFix" result="shape"/>
<feGaussianBlur stdDeviation="6" result="effect1_foregroundBlur_151_913"/>
</filter>
</defs>
</svg>
