<?xml version="1.0" encoding="UTF-8" standalone="no"?>
<!DOCTYPE svg PUBLIC "-//W3C//DTD SVG 1.1//EN"
 "http://www.w3.org/Graphics/SVG/1.1/DTD/svg11.dtd">
<!-- Generated by graphviz version 2.43.0 (0)
 -->
<!-- Title: %3 Pages: 1 -->
<svg width="2522pt" height="240pt"
 viewBox="0.00 0.00 2522.00 239.74" xmlns="http://www.w3.org/2000/svg" xmlns:xlink="http://www.w3.org/1999/xlink">
<g id="graph0" class="graph" transform="scale(1 1) rotate(0) translate(36 203.74)">
<title>%3</title>
<polygon fill="white" stroke="transparent" points="-36,36 -36,-203.74 2486,-203.74 2486,36 -36,36"/>
<text text-anchor="middle" x="1225" y="-152.54" font-family="Times,serif" font-size="14.00">Sweep&#39;s Plan &amp; Progress</text>
<!-- start -->
<g id="node1" class="node">
<title>start</title>
</g>
<!-- 11ef28c9&#45;b716&#45;4e74&#45;a31a&#45;32c81d449fa1 -->
<g id="node3" class="node">
<title>11ef28c9&#45;b716&#45;4e74&#45;a31a&#45;32c81d449fa1</title>
<ellipse fill="green" stroke="black" cx="258.5" cy="-101.87" rx="202.88" ry="26.74"/>
<text text-anchor="middle" x="258.5" y="-105.67" font-family="Times,serif" font-size="14.00">✓ Modify</text>
<text text-anchor="middle" x="258.5" y="-90.67" font-family="Times,serif" font-size="14.00">src/components/landing/hero/hero.tsx</text>
</g>
<!-- start&#45;&gt;11ef28c9&#45;b716&#45;4e74&#45;a31a&#45;32c81d449fa1 -->
<g id="edge8" class="edge">
<title>start&#45;&gt;11ef28c9&#45;b716&#45;4e74&#45;a31a&#45;32c81d449fa1</title>
<path fill="none" stroke="black" d="M1.24,-101.87C4.89,-101.87 21.74,-101.87 45.22,-101.87"/>
<polygon fill="black" stroke="black" points="45.28,-105.37 55.28,-101.87 45.28,-98.37 45.28,-105.37"/>
<text text-anchor="middle" x="28.28" y="-108.67" font-family="Times,serif" font-size="14.00">Start</text>
</g>
<!-- end -->
<g id="node2" class="node">
<title>end</title>
</g>
<!-- 668c39f0&#45;c260&#45;4fcb&#45;a195&#45;647f7ce8c816 -->
<g id="node4" class="node">
<title>668c39f0&#45;c260&#45;4fcb&#45;a195&#45;647f7ce8c816</title>
<ellipse fill="white" stroke="black" cx="761.5" cy="-101.87" rx="264.42" ry="26.74"/>
<text text-anchor="middle" x="761.5" y="-105.67" font-family="Times,serif" font-size="14.00">▶ Modify</text>
<text text-anchor="middle" x="761.5" y="-90.67" font-family="Times,serif" font-size="14.00">src/components/landing/partners/technologies.tsx</text>
</g>
<!-- 11ef28c9&#45;b716&#45;4e74&#45;a31a&#45;32c81d449fa1&#45;&gt;668c39f0&#45;c260&#45;4fcb&#45;a195&#45;647f7ce8c816 -->
<g id="edge2" class="edge">
<title>11ef28c9&#45;b716&#45;4e74&#45;a31a&#45;32c81d449fa1&#45;&gt;668c39f0&#45;c260&#45;4fcb&#45;a195&#45;647f7ce8c816</title>
<path fill="none" stroke="black" d="M461.86,-101.87C470.18,-101.87 478.5,-101.87 486.83,-101.87"/>
<polygon fill="black" stroke="black" points="486.98,-105.37 496.98,-101.87 486.98,-98.37 486.98,-105.37"/>
</g>
<!-- 31e4ffcf&#45;a8cf&#45;47d4&#45;b16a&#45;39b1762f4850 -->
<g id="node7" class="node">
<title>31e4ffcf&#45;a8cf&#45;47d4&#45;b16a&#45;39b1762f4850</title>
<polygon fill="yellow" stroke="black" points="402,-38 115,-38 115,0 402,0 402,-38"/>
<text text-anchor="middle" x="258.5" y="-22.8" font-family="Times,serif" font-size="14.00">⋯ Check</text>
<text text-anchor="middle" x="258.5" y="-7.8" font-family="Times,serif" font-size="14.00">src/components/landing/hero/hero.tsx</text>
</g>
<!-- 11ef28c9&#45;b716&#45;4e74&#45;a31a&#45;32c81d449fa1&#45;&gt;31e4ffcf&#45;a8cf&#45;47d4&#45;b16a&#45;39b1762f4850 -->
<g id="edge1" class="edge">
<title>11ef28c9&#45;b716&#45;4e74&#45;a31a&#45;32c81d449fa1&#45;&gt;31e4ffcf&#45;a8cf&#45;47d4&#45;b16a&#45;39b1762f4850</title>
<path fill="none" stroke="black" stroke-dasharray="5,2" d="M258.5,-74.84C258.5,-66.3 258.5,-56.78 258.5,-48.1"/>
<polygon fill="black" stroke="black" points="262,-48.05 258.5,-38.05 255,-48.05 262,-48.05"/>
</g>
<!-- 21705f2c&#45;2940&#45;4049&#45;ae74&#45;a5b698c4e192 -->
<g id="node5" class="node">
<title>21705f2c&#45;2940&#45;4049&#45;ae74&#45;a5b698c4e192</title>
<ellipse fill="white" stroke="black" cx="1386.5" cy="-101.87" rx="324.62" ry="26.74"/>
<text text-anchor="middle" x="1386.5" y="-105.67" font-family="Times,serif" font-size="14.00">▶ Modify</text>
<text text-anchor="middle" x="1386.5" y="-90.67" font-family="Times,serif" font-size="14.00">src/components/landing/testimonials/testimonial&#45;highlight.tsx</text>
</g>
<!-- 668c39f0&#45;c260&#45;4fcb&#45;a195&#45;647f7ce8c816&#45;&gt;21705f2c&#45;2940&#45;4049&#45;ae74&#45;a5b698c4e192 -->
<g id="edge4" class="edge">
<title>668c39f0&#45;c260&#45;4fcb&#45;a195&#45;647f7ce8c816&#45;&gt;21705f2c&#45;2940&#45;4049&#45;ae74&#45;a5b698c4e192</title>
<path fill="none" stroke="black" d="M1026.09,-101.87C1034.51,-101.87 1042.94,-101.87 1051.36,-101.87"/>
<polygon fill="black" stroke="black" points="1051.64,-105.37 1061.64,-101.87 1051.64,-98.37 1051.64,-105.37"/>
</g>
<!-- f1e8d9d9&#45;b812&#45;4046&#45;80de&#45;9de24851a2cd -->
<g id="node8" class="node">
<title>f1e8d9d9&#45;b812&#45;4046&#45;80de&#45;9de24851a2cd</title>
<polygon fill="white" stroke="black" points="948.5,-38 574.5,-38 574.5,0 948.5,0 948.5,-38"/>
<text text-anchor="middle" x="761.5" y="-22.8" font-family="Times,serif" font-size="14.00">▶ Check</text>
<text text-anchor="middle" x="761.5" y="-7.8" font-family="Times,serif" font-size="14.00">src/components/landing/partners/technologies.tsx</text>
</g>
<!-- 668c39f0&#45;c260&#45;4fcb&#45;a195&#45;647f7ce8c816&#45;&gt;f1e8d9d9&#45;b812&#45;4046&#45;80de&#45;9de24851a2cd -->
<g id="edge3" class="edge">
<title>668c39f0&#45;c260&#45;4fcb&#45;a195&#45;647f7ce8c816&#45;&gt;f1e8d9d9&#45;b812&#45;4046&#45;80de&#45;9de24851a2cd</title>
<path fill="none" stroke="black" stroke-dasharray="5,2" d="M761.5,-74.84C761.5,-66.3 761.5,-56.78 761.5,-48.1"/>
<polygon fill="black" stroke="black" points="765,-48.05 761.5,-38.05 758,-48.05 765,-48.05"/>
</g>
<!-- 2d4c69d2&#45;c8f6&#45;4f7a&#45;8558&#45;fa471c0296ee -->
<g id="node6" class="node">
<title>2d4c69d2&#45;c8f6&#45;4f7a&#45;8558&#45;fa471c0296ee</title>
<ellipse fill="white" stroke="black" cx="2066.5" cy="-101.87" rx="319.72" ry="26.74"/>
<text text-anchor="middle" x="2066.5" y="-105.67" font-family="Times,serif" font-size="14.00">▶ Modify</text>
<text text-anchor="middle" x="2066.5" y="-90.67" font-family="Times,serif" font-size="14.00">src/components/landing/features/column/feature&#45;sections.tsx</text>
</g>
<!-- 21705f2c&#45;2940&#45;4049&#45;ae74&#45;a5b698c4e192&#45;&gt;2d4c69d2&#45;c8f6&#45;4f7a&#45;8558&#45;fa471c0296ee -->
<g id="edge6" class="edge">
<title>21705f2c&#45;2940&#45;4049&#45;ae74&#45;a5b698c4e192&#45;&gt;2d4c69d2&#45;c8f6&#45;4f7a&#45;8558&#45;fa471c0296ee</title>
<path fill="none" stroke="black" d="M1711.23,-101.87C1719.61,-101.87 1728,-101.87 1736.39,-101.87"/>
<polygon fill="black" stroke="black" points="1736.62,-105.37 1746.62,-101.87 1736.62,-98.37 1736.62,-105.37"/>
</g>
<!-- 37656cba&#45;e295&#45;462a&#45;8f68&#45;3cc81c2d2307 -->
<g id="node9" class="node">
<title>37656cba&#45;e295&#45;462a&#45;8f68&#45;3cc81c2d2307</title>
<polygon fill="white" stroke="black" points="1616,-38 1157,-38 1157,0 1616,0 1616,-38"/>
<text text-anchor="middle" x="1386.5" y="-22.8" font-family="Times,serif" font-size="14.00">▶ Check</text>
<text text-anchor="middle" x="1386.5" y="-7.8" font-family="Times,serif" font-size="14.00">src/components/landing/testimonials/testimonial&#45;highlight.tsx</text>
</g>
<!-- 21705f2c&#45;2940&#45;4049&#45;ae74&#45;a5b698c4e192&#45;&gt;37656cba&#45;e295&#45;462a&#45;8f68&#45;3cc81c2d2307 -->
<g id="edge5" class="edge">
<title>21705f2c&#45;2940&#45;4049&#45;ae74&#45;a5b698c4e192&#45;&gt;37656cba&#45;e295&#45;462a&#45;8f68&#45;3cc81c2d2307</title>
<path fill="none" stroke="black" stroke-dasharray="5,2" d="M1386.5,-74.84C1386.5,-66.3 1386.5,-56.78 1386.5,-48.1"/>
<polygon fill="black" stroke="black" points="1390,-48.05 1386.5,-38.05 1383,-48.05 1390,-48.05"/>
</g>
<!-- 2d4c69d2&#45;c8f6&#45;4f7a&#45;8558&#45;fa471c0296ee&#45;&gt;end -->
<g id="edge9" class="edge">
<title>2d4c69d2&#45;c8f6&#45;4f7a&#45;8558&#45;fa471c0296ee&#45;&gt;end</title>
<path fill="none" stroke="black" d="M2386.26,-101.87C2409.26,-101.87 2427.7,-101.87 2438.6,-101.87"/>
<polygon fill="black" stroke="black" points="2438.84,-105.37 2448.84,-101.87 2438.84,-98.37 2438.84,-105.37"/>
<text text-anchor="middle" x="2417.56" y="-108.67" font-family="Times,serif" font-size="14.00">Finish</text>
</g>
<!-- 68f56a24&#45;0bcb&#45;4fea&#45;aa55&#45;515b567b80ca -->
<g id="node10" class="node">
<title>68f56a24&#45;0bcb&#45;4fea&#45;aa55&#45;515b567b80ca</title>
<polygon fill="white" stroke="black" points="2292.5,-38 1840.5,-38 1840.5,0 2292.5,0 2292.5,-38"/>
<text text-anchor="middle" x="2066.5" y="-22.8" font-family="Times,serif" font-size="14.00">▶ Check</text>
<text text-anchor="middle" x="2066.5" y="-7.8" font-family="Times,serif" font-size="14.00">src/components/landing/features/column/feature&#45;sections.tsx</text>
</g>
<!-- 2d4c69d2&#45;c8f6&#45;4f7a&#45;8558&#45;fa471c0296ee&#45;&gt;68f56a24&#45;0bcb&#45;4fea&#45;aa55&#45;515b567b80ca -->
<g id="edge7" class="edge">
<title>2d4c69d2&#45;c8f6&#45;4f7a&#45;8558&#45;fa471c0296ee&#45;&gt;68f56a24&#45;0bcb&#45;4fea&#45;aa55&#45;515b567b80ca</title>
<path fill="none" stroke="black" stroke-dasharray="5,2" d="M2066.5,-74.84C2066.5,-66.3 2066.5,-56.78 2066.5,-48.1"/>
<polygon fill="black" stroke="black" points="2070,-48.05 2066.5,-38.05 2063,-48.05 2070,-48.05"/>
</g>
</g>
</svg>
