<svg width="35" height="35" viewBox="0 0 35 35" fill="none" xmlns="http://www.w3.org/2000/svg">
<path d="M18.7498 16.0417C18.7498 15.3513 18.1902 14.7917 17.4998 14.7917C16.8095 14.7917 16.2498 15.3513 16.2498 16.0417H18.7498ZM12.4272 29.3341C12.0597 29.9185 12.2354 30.6902 12.8197 31.0578C13.4041 31.4253 14.1758 31.2496 14.5434 30.6653L12.4272 29.3341ZM8.54773 26.8936L7.48967 26.228L7.48967 26.2281L8.54773 26.8936ZM7.39362 26.3852C7.0411 26.9787 7.23651 27.7457 7.83008 28.0982C8.42365 28.4507 9.1906 28.2553 9.54312 27.6617L7.39362 26.3852ZM18.8313 29.8371C18.522 30.4543 18.7717 31.2053 19.389 31.5145C20.0062 31.8238 20.7572 31.5741 21.0664 30.9568L18.8313 29.8371ZM23.3267 25.132C23.5147 24.4678 23.1286 23.7769 22.4643 23.5889C21.8 23.4009 21.1092 23.787 20.9212 24.4513L23.3267 25.132ZM21.7982 20.2475C21.7048 20.9315 22.1836 21.5617 22.8676 21.6552C23.5516 21.7486 24.1818 21.2698 24.2752 20.5858L21.7982 20.2475ZM26.5202 26.1002C26.3312 26.7642 26.7162 27.4557 27.3802 27.6447C28.0442 27.8337 28.7357 27.4486 28.9247 26.7846L26.5202 26.1002ZM3.25065 21.8598C2.94899 22.4808 3.20783 23.2287 3.82879 23.5304C4.44975 23.832 5.19768 23.5732 5.49935 22.9522L3.25065 21.8598ZM11.0408 4.85379C10.4432 5.19946 10.239 5.96412 10.5847 6.5617C10.9303 7.15928 11.695 7.36348 12.2926 7.0178L11.0408 4.85379ZM8.47613 10.8342C8.82181 10.2367 8.61761 9.47201 8.02003 9.12633C7.42246 8.78065 6.6578 8.98485 6.31212 9.58243L8.47613 10.8342ZM16.2498 16.0417C16.2498 20.9286 14.8489 25.4845 12.4272 29.3341L14.5434 30.6653C17.2085 26.4287 18.7498 21.4133 18.7498 16.0417H16.2498ZM24.5832 16.0417C24.5832 12.1296 21.4119 8.95833 17.4999 8.95833V11.4583C20.0312 11.4583 22.0832 13.5104 22.0832 16.0417H24.5832ZM10.4165 16.0417C10.4165 19.7978 9.34322 23.2815 7.48967 26.228L9.6058 27.5592C11.7029 24.2256 12.9165 20.2824 12.9165 16.0417H10.4165ZM17.4999 8.95833C13.5878 8.95833 10.4165 12.1296 10.4165 16.0417H12.9165C12.9165 13.5104 14.9686 11.4583 17.4999 11.4583V8.95833ZM7.48967 26.2281C7.4569 26.2801 7.42489 26.3325 7.39362 26.3852L9.54312 27.6617C9.5635 27.6274 9.58439 27.5932 9.6058 27.5592L7.48967 26.2281ZM21.0664 30.9568C21.9934 29.1066 22.7534 27.1581 23.3267 25.132L20.9212 24.4513C20.3911 26.3244 19.6885 28.126 18.8313 29.8371L21.0664 30.9568ZM24.2752 20.5858C24.4784 19.0987 24.5832 17.5816 24.5832 16.0417H22.0832C22.0832 17.468 21.9861 18.8721 21.7982 20.2475L24.2752 20.5858ZM30.4167 16.0417C30.4167 8.90799 24.6337 3.125 17.5 3.125V5.625C23.253 5.625 27.9167 10.2887 27.9167 16.0417H30.4167ZM28.9247 26.7846C29.8967 23.3694 30.4167 19.7652 30.4167 16.0417H27.9167C27.9167 19.5315 27.4295 22.9055 26.5202 26.1002L28.9247 26.7846ZM4.58333 16.0417C4.58333 18.1301 4.10406 20.1031 3.25065 21.8598L5.49935 22.9522C6.51453 20.8625 7.08333 18.5168 7.08333 16.0417H4.58333ZM17.5 3.125C15.1494 3.125 12.9419 3.75403 11.0408 4.85379L12.2926 7.0178C13.8235 6.13223 15.6006 5.625 17.5 5.625V3.125ZM6.31212 9.58243C5.21237 11.4836 4.58333 13.6911 4.58333 16.0417H7.08333C7.08333 14.1423 7.59057 12.3651 8.47613 10.8342L6.31212 9.58243Z" fill="url(#paint0_linear_40_438)"/>
<defs>
<linearGradient id="paint0_linear_40_438" x1="4.375" y1="4.375" x2="32.2256" y2="8.21571" gradientUnits="userSpaceOnUse">
<stop stop-color="#6CD5F7"/>
<stop offset="0.505208" stop-color="#F89D5C"/>
<stop offset="1" stop-color="#5B6AF0"/>
</linearGradient>
</defs>
</svg>
