<svg width="50" height="50" viewBox="0 0 50 50" fill="none" xmlns="http://www.w3.org/2000/svg">
<g opacity="0.2">
<path d="M26.4997 22.9167C26.4997 22.0882 25.8282 21.4167 24.9997 21.4167C24.1713 21.4167 23.4997 22.0882 23.4997 22.9167H26.4997ZM17.9951 42.058C17.5539 42.7592 17.7648 43.6853 18.466 44.1264C19.1673 44.5675 20.0933 44.3566 20.5344 43.6554L17.9951 42.058ZM12.211 38.4195L10.9414 37.6208L10.9414 37.6208L12.211 38.4195ZM10.808 37.839C10.385 38.5513 10.6194 39.4716 11.3317 39.8946C12.044 40.3176 12.9643 40.0832 13.3874 39.3709L10.808 37.839ZM27.1572 42.7523C26.7862 43.493 27.0858 44.3943 27.8265 44.7653C28.5672 45.1364 29.4684 44.8368 29.8395 44.0961L27.1572 42.7523ZM33.049 35.8251C33.2746 35.028 32.8112 34.1989 32.0141 33.9733C31.217 33.7478 30.3879 34.2111 30.1623 35.0082L33.049 35.8251ZM31.4234 28.9637C31.3113 29.7845 31.8858 30.5408 32.7067 30.6529C33.5275 30.765 34.2837 30.1905 34.3958 29.3697L31.4234 28.9637ZM38.1607 37.3643C37.934 38.1611 38.396 38.9908 39.1928 39.2176C39.9896 39.4444 40.8194 38.9823 41.0461 38.1855L38.1607 37.3643ZM4.90078 31.3531C4.53879 32.0983 4.8494 32.9958 5.59455 33.3578C6.3397 33.7198 7.23722 33.4092 7.59922 32.664L4.90078 31.3531ZM15.9156 7.18129C15.1985 7.59611 14.9534 8.5137 15.3683 9.23079C15.7831 9.94788 16.7007 10.1929 17.4178 9.77811L15.9156 7.18129ZM11.8614 15.3344C12.2763 14.6173 12.0312 13.6997 11.3141 13.2849C10.597 12.8701 9.67944 13.1152 9.26463 13.8322L11.8614 15.3344ZM23.4997 22.9167C23.4997 29.9534 21.4824 36.5143 17.9951 42.058L20.5344 43.6554C24.3138 37.6473 26.4997 30.535 26.4997 22.9167H23.4997ZM34.8331 22.9167C34.8331 17.4859 30.4306 13.0833 24.9998 13.0833V16.0833C28.7738 16.0833 31.8331 19.1427 31.8331 22.9167H34.8331ZM15.1665 22.9167C15.1665 28.3379 13.6171 33.3672 10.9414 37.6208L13.4807 39.2182C16.4487 34.5001 18.1665 28.9194 18.1665 22.9167H15.1665ZM24.9998 13.0833C19.569 13.0833 15.1665 17.4859 15.1665 22.9167H18.1665C18.1665 19.1427 21.2259 16.0833 24.9998 16.0833V13.0833ZM10.9414 37.6208C10.8959 37.6931 10.8514 37.7659 10.808 37.839L13.3874 39.3709C13.4177 39.3197 13.4488 39.2688 13.4807 39.2182L10.9414 37.6208ZM29.8395 44.0961C31.1557 41.4688 32.2349 38.702 33.049 35.8251L30.1623 35.0082C29.4002 37.7016 28.3898 40.2921 27.1572 42.7523L29.8395 44.0961ZM34.3958 29.3697C34.6842 27.258 34.8331 25.1036 34.8331 22.9167H31.8331C31.8331 24.9673 31.6935 26.9861 31.4234 28.9637L34.3958 29.3697ZM43.1667 22.9167C43.1667 12.8835 35.0332 4.75 25 4.75V7.75C33.3763 7.75 40.1667 14.5403 40.1667 22.9167H43.1667ZM41.0461 38.1855C42.4276 33.3319 43.1667 28.2093 43.1667 22.9167H40.1667C40.1667 27.9289 39.4669 32.7751 38.1607 37.3643L41.0461 38.1855ZM6.83333 22.9167C6.83333 25.9444 6.13842 28.8055 4.90078 31.3531L7.59922 32.664C9.03099 29.7168 9.83333 26.4083 9.83333 22.9167H6.83333ZM25 4.75C21.6936 4.75 18.5892 5.6347 15.9156 7.18129L17.4178 9.77811C19.647 8.48854 22.235 7.75 25 7.75V4.75ZM9.26463 13.8322C7.71803 16.5058 6.83333 19.6102 6.83333 22.9167H9.83333C9.83333 20.1517 10.5719 17.5637 11.8614 15.3344L9.26463 13.8322Z" fill="white"/>
</g>
</svg>
