<svg width="28" height="28" viewBox="0 0 28 28" fill="none" xmlns="http://www.w3.org/2000/svg">
<path d="M10.5 5.83301L11.0303 5.30268L10.8107 5.08301H10.5V5.83301ZM12.8333 8.16634L12.303 8.69667L12.5227 8.91634H12.8333V8.16634ZM19.0833 11.6663C19.0833 12.0806 19.4191 12.4163 19.8333 12.4163C20.2475 12.4163 20.5833 12.0806 20.5833 11.6663H19.0833ZM4.25 19.833V8.16634H2.75V19.833H4.25ZM5.83333 6.58301H10.5V5.08301H5.83333V6.58301ZM9.96967 6.36334L12.303 8.69667L13.3637 7.63601L11.0303 5.30268L9.96967 6.36334ZM12.8333 8.91634H17.5V7.41634H12.8333V8.91634ZM17.5 8.91634C18.3745 8.91634 19.0833 9.62522 19.0833 10.4997H20.5833C20.5833 8.7968 19.2029 7.41634 17.5 7.41634V8.91634ZM4.25 8.16634C4.25 7.29189 4.95888 6.58301 5.83333 6.58301V5.08301C4.13046 5.08301 2.75 6.46346 2.75 8.16634H4.25ZM2.75 19.833C2.75 21.5359 4.13046 22.9163 5.83333 22.9163V21.4163C4.95888 21.4163 4.25 20.7075 4.25 19.833H2.75ZM19.0833 10.4997V11.6663H20.5833V10.4997H19.0833ZM8.91667 13.9997C8.91667 13.1252 9.62555 12.4163 10.5 12.4163V10.9163C8.79712 10.9163 7.41667 12.2968 7.41667 13.9997H8.91667ZM10.5 12.4163H22.1667V10.9163H10.5V12.4163ZM22.1667 12.4163C23.0411 12.4163 23.75 13.1252 23.75 13.9997H25.25C25.25 12.2968 23.8695 10.9163 22.1667 10.9163V12.4163ZM23.75 13.9997V19.833H25.25V13.9997H23.75ZM23.75 19.833C23.75 20.7075 23.0411 21.4163 22.1667 21.4163V22.9163C23.8695 22.9163 25.25 21.5359 25.25 19.833H23.75ZM22.1667 21.4163H5.83333V22.9163H22.1667V21.4163ZM5.83333 22.9163C7.53621 22.9163 8.91667 21.5359 8.91667 19.833H7.41667C7.41667 20.7075 6.70778 21.4163 5.83333 21.4163V22.9163ZM8.91667 19.833V13.9997H7.41667V19.833H8.91667Z" fill="url(#paint0_linear_41_858)"/>
<defs>
<linearGradient id="paint0_linear_41_858" x1="3.5" y1="5.83301" x2="26.735" y2="10.1571" gradientUnits="userSpaceOnUse">
<stop stop-color="#56C1E3"/>
<stop offset="1" stop-color="#5B6AF0"/>
</linearGradient>
</defs>
</svg>
