<svg width="35" height="35" viewBox="0 0 35 35" fill="none" xmlns="http://www.w3.org/2000/svg">
<path d="M29.1666 18.9585V8.75016C29.1666 7.13933 27.8608 5.8335 26.25 5.8335H8.74998C7.13915 5.8335 5.83331 7.13933 5.83331 8.75016V18.9585M29.1666 18.9585V26.2502C29.1666 27.861 27.8608 29.1668 26.25 29.1668H8.74998C7.13915 29.1668 5.83331 27.861 5.83331 26.2502V18.9585M29.1666 18.9585H25.3957C25.0089 18.9585 24.638 19.1121 24.3645 19.3856L20.8438 22.9064C20.5703 23.1798 20.1994 23.3335 19.8126 23.3335H15.1874C14.8006 23.3335 14.4297 23.1798 14.1562 22.9064L10.6354 19.3856C10.362 19.1121 9.99103 18.9585 9.60425 18.9585H5.83331" stroke="url(#paint0_linear_40_431)" stroke-width="2.5" stroke-linecap="round" stroke-linejoin="round"/>
<defs>
<linearGradient id="paint0_linear_40_431" x1="5.83331" y1="5.8335" x2="31.9959" y2="9.62047" gradientUnits="userSpaceOnUse">
<stop stop-color="#6CD5F7"/>
<stop offset="0.505208" stop-color="#F89D5C"/>
<stop offset="1" stop-color="#5B6AF0"/>
</linearGradient>
</defs>
</svg>
