<svg width="50" height="50" viewBox="0 0 50 50" fill="none" xmlns="http://www.w3.org/2000/svg">
<g opacity="0.2">
<path d="M35.4167 29.1668V41.6668M29.1667 35.4168H41.6667M12.5 20.8335H16.6667C18.9679 20.8335 20.8334 18.968 20.8334 16.6668V12.5002C20.8334 10.199 18.9679 8.3335 16.6667 8.3335H12.5C10.1989 8.3335 8.33337 10.199 8.33337 12.5002V16.6668C8.33337 18.968 10.1989 20.8335 12.5 20.8335ZM33.3334 20.8335H37.5C39.8012 20.8335 41.6667 18.968 41.6667 16.6668V12.5002C41.6667 10.199 39.8012 8.3335 37.5 8.3335H33.3334C31.0322 8.3335 29.1667 10.199 29.1667 12.5002V16.6668C29.1667 18.968 31.0322 20.8335 33.3334 20.8335ZM12.5 41.6668H16.6667C18.9679 41.6668 20.8334 39.8014 20.8334 37.5002V33.3335C20.8334 31.0323 18.9679 29.1668 16.6667 29.1668H12.5C10.1989 29.1668 8.33337 31.0323 8.33337 33.3335V37.5002C8.33337 39.8014 10.1989 41.6668 12.5 41.6668Z" stroke="white" stroke-width="3" stroke-linecap="round" stroke-linejoin="round"/>
</g>
</svg>
