<svg width="50" height="50" viewBox="0 0 50 50" fill="none" xmlns="http://www.w3.org/2000/svg">
<g opacity="0.2">
<path d="M25 9.0712C26.527 7.34116 28.7611 6.25 31.25 6.25C35.8524 6.25 39.5833 9.98096 39.5833 14.5833C39.5833 19.1857 35.8524 22.9167 31.25 22.9167C28.7611 22.9167 26.527 21.8255 25 20.0955M31.25 43.75H6.25V41.6667C6.25 34.7631 11.8464 29.1667 18.75 29.1667C25.6536 29.1667 31.25 34.7631 31.25 41.6667V43.75ZM31.25 43.75H43.75V41.6667C43.75 34.7631 38.1536 29.1667 31.25 29.1667C28.9732 29.1667 26.8386 29.7754 25 30.8389M27.0833 14.5833C27.0833 19.1857 23.3524 22.9167 18.75 22.9167C14.1476 22.9167 10.4167 19.1857 10.4167 14.5833C10.4167 9.98096 14.1476 6.25 18.75 6.25C23.3524 6.25 27.0833 9.98096 27.0833 14.5833Z" stroke="white" stroke-width="3" stroke-linecap="round" stroke-linejoin="round"/>
</g>
</svg>
