<svg width="35" height="35" viewBox="0 0 35 35" fill="none" xmlns="http://www.w3.org/2000/svg">
<path d="M17.5 6.34984C18.5689 5.13881 20.1327 4.375 21.875 4.375C25.0967 4.375 27.7083 6.98667 27.7083 10.2083C27.7083 13.43 25.0967 16.0417 21.875 16.0417C20.1327 16.0417 18.5689 15.2779 17.5 14.0668M21.875 30.625H4.375V29.1667C4.375 24.3342 8.29251 20.4167 13.125 20.4167C17.9575 20.4167 21.875 24.3342 21.875 29.1667V30.625ZM21.875 30.625H30.625V29.1667C30.625 24.3342 26.7075 20.4167 21.875 20.4167C20.2812 20.4167 18.787 20.8428 17.5 21.5873M18.9583 10.2083C18.9583 13.43 16.3467 16.0417 13.125 16.0417C9.90334 16.0417 7.29167 13.43 7.29167 10.2083C7.29167 6.98667 9.90334 4.375 13.125 4.375C16.3467 4.375 18.9583 6.98667 18.9583 10.2083Z" stroke="url(#paint0_linear_40_415)" stroke-width="2.5" stroke-linecap="round" stroke-linejoin="round"/>
<defs>
<linearGradient id="paint0_linear_40_415" x1="4.375" y1="4.375" x2="33.808" y2="8.63535" gradientUnits="userSpaceOnUse">
<stop stop-color="#6CD5F7"/>
<stop offset="0.505208" stop-color="#F89D5C"/>
<stop offset="1" stop-color="#5B6AF0"/>
</linearGradient>
</defs>
</svg>
