<svg width="17" height="16" viewBox="0 0 17 16" fill="none" xmlns="http://www.w3.org/2000/svg">
<path d="M7.70724 1.21267C8.02836 0.224357 9.42657 0.224357 9.74769 1.21267L10.895 4.74387C11.0387 5.18586 11.4505 5.48511 11.9153 5.48511H15.6282C16.6674 5.48511 17.0994 6.81488 16.2587 7.42569L13.2549 9.60809C12.8789 9.88126 12.7216 10.3654 12.8652 10.8074L14.0126 14.3386C14.3337 15.327 13.2025 16.1488 12.3618 15.538L9.358 13.3556C8.98202 13.0824 8.47291 13.0824 8.09693 13.3556L5.09311 15.538C4.2524 16.1488 3.12123 15.327 3.44236 14.3386L4.58971 10.8074C4.73332 10.3654 4.576 9.88126 4.20002 9.60809L1.1962 7.42569C0.355492 6.81488 0.787561 5.48511 1.82674 5.48511H5.53966C6.00439 5.48511 6.41627 5.18586 6.55988 4.74387L7.70724 1.21267Z" fill="url(#paint0_linear_647_132)"/>
<defs>
<linearGradient id="paint0_linear_647_132" x1="0.751953" y1="0.471436" x2="18.604" y2="3.16962" gradientUnits="userSpaceOnUse">
<stop stop-color="#FFB36D"/>
<stop offset="1" stop-color="#EC5353"/>
</linearGradient>
</defs>
</svg>
