<svg width="191" height="63" viewBox="0 0 191 63" fill="none" xmlns="http://www.w3.org/2000/svg">
<rect x="1" y="1" width="189" height="61" rx="10" fill="black" stroke="url(#paint0_linear_71_356)" stroke-width="2"/>
<path d="M74.4253 45.5021L72.6979 41.0634H65.6537L63.9711 45.5021H61.6155L67.9419 29.608H70.4769L76.8033 45.5021H74.4253ZM69.1533 31.8946L66.4388 39.0234H71.9127L69.1533 31.8946ZM80.8051 49.7615H78.7188V34.7192H80.7602V36.4005C81.0743 35.8326 81.5454 35.3693 82.1736 35.0106C82.8017 34.652 83.5346 34.4726 84.3721 34.4726C85.9275 34.4726 87.139 35.0032 88.0064 36.0643C88.8888 37.1254 89.33 38.4704 89.33 40.0995C89.33 41.7434 88.8739 43.1034 87.9615 44.1795C87.0642 45.2555 85.8453 45.7935 84.3048 45.7935C83.5121 45.7935 82.8092 45.6291 82.196 45.3004C81.5828 44.9716 81.1192 44.5531 80.8051 44.045V49.7615ZM87.1764 40.0995C87.1764 39.0085 86.8847 38.1118 86.3014 37.4093C85.7331 36.692 84.9629 36.3333 83.9907 36.3333C83.0335 36.3333 82.2558 36.692 81.6576 37.4093C81.0743 38.1118 80.7827 39.0085 80.7827 40.0995C80.7827 41.2203 81.0743 42.1395 81.6576 42.8568C82.2558 43.5592 83.0335 43.9105 83.9907 43.9105C84.9479 43.9105 85.7181 43.5592 86.3014 42.8568C86.8847 42.1395 87.1764 41.2203 87.1764 40.0995ZM94.1034 49.7615H92.0171V34.7192H94.0585V36.4005C94.3726 35.8326 94.8437 35.3693 95.4719 35.0106C96.1 34.652 96.8329 34.4726 97.6704 34.4726C99.2258 34.4726 100.437 35.0032 101.305 36.0643C102.187 37.1254 102.628 38.4704 102.628 40.0995C102.628 41.7434 102.172 43.1034 101.26 44.1795C100.362 45.2555 99.1436 45.7935 97.6031 45.7935C96.8104 45.7935 96.1075 45.6291 95.4943 45.3004C94.8811 44.9716 94.4175 44.5531 94.1034 44.045V49.7615ZM100.475 40.0995C100.475 39.0085 100.183 38.1118 99.5997 37.4093C99.0314 36.692 98.2612 36.3333 97.289 36.3333C96.3319 36.3333 95.5541 36.692 94.9559 37.4093C94.3726 38.1118 94.081 39.0085 94.081 40.0995C94.081 41.2203 94.3726 42.1395 94.9559 42.8568C95.5541 43.5592 96.3319 43.9105 97.289 43.9105C98.2462 43.9105 99.0164 43.5592 99.5997 42.8568C100.183 42.1395 100.475 41.2203 100.475 40.0995ZM121.289 33.2172L119.315 33.9122C119.21 33.2247 118.873 32.6045 118.305 32.0515C117.737 31.4836 116.952 31.1996 115.949 31.1996C115.067 31.1996 114.334 31.4537 113.751 31.9618C113.167 32.47 112.875 33.0977 112.875 33.8449C112.875 34.4278 113.047 34.921 113.391 35.3245C113.751 35.728 114.259 36.0045 114.918 36.1539L117.296 36.6696C118.612 36.9535 119.629 37.4915 120.347 38.2836C121.064 39.0608 121.423 40.0098 121.423 41.1307C121.423 42.4159 120.915 43.5219 119.898 44.4485C118.881 45.3751 117.557 45.8384 115.927 45.8384C114.147 45.8384 112.748 45.3751 111.731 44.4485C110.729 43.5069 110.146 42.3935 109.982 41.1082L112.09 40.4357C112.18 41.3922 112.554 42.1992 113.212 42.8568C113.871 43.5144 114.768 43.8432 115.905 43.8432C116.952 43.8432 117.759 43.6041 118.327 43.1258C118.896 42.6476 119.18 42.0423 119.18 41.31C119.18 40.7122 118.978 40.1966 118.574 39.7632C118.17 39.3148 117.58 39.0085 116.802 38.8441L114.536 38.3509C113.354 38.0968 112.412 37.5961 111.709 36.8489C111.006 36.1016 110.655 35.1526 110.655 34.0019C110.655 32.7465 111.163 31.648 112.18 30.7065C113.212 29.75 114.454 29.2717 115.905 29.2717C117.535 29.2717 118.784 29.6678 119.651 30.4599C120.519 31.252 121.064 32.1711 121.289 33.2172ZM126.83 31.3117V34.7192H129.163V36.6247H126.83V42.2291C126.83 42.7373 126.942 43.1109 127.166 43.35C127.406 43.5891 127.795 43.7087 128.333 43.7087C128.647 43.7087 128.924 43.6788 129.163 43.619V45.4124C128.804 45.5469 128.326 45.6142 127.727 45.6142C126.8 45.6142 126.067 45.3452 125.529 44.8072C124.99 44.2691 124.721 43.5144 124.721 42.543V36.6247H122.657V34.7192H123.241C123.794 34.7192 124.205 34.5698 124.474 34.2709C124.759 33.957 124.901 33.5535 124.901 33.0603V31.3117H126.83ZM134.089 42.9465C134.747 43.619 135.547 43.9553 136.489 43.9553C137.432 43.9553 138.224 43.619 138.867 42.9465C139.525 42.259 139.854 41.31 139.854 40.0995C139.854 38.9038 139.525 37.9698 138.867 37.2972C138.224 36.6098 137.432 36.266 136.489 36.266C135.547 36.266 134.747 36.6098 134.089 37.2972C133.446 37.9698 133.124 38.9038 133.124 40.0995C133.124 41.31 133.446 42.259 134.089 42.9465ZM132.519 36.0194C133.565 34.9285 134.889 34.383 136.489 34.383C138.09 34.383 139.406 34.9285 140.438 36.0194C141.485 37.0955 142.008 38.4555 142.008 40.0995C142.008 41.7584 141.492 43.1333 140.46 44.2243C139.428 45.3004 138.105 45.8384 136.489 45.8384C134.874 45.8384 133.551 45.3004 132.519 44.2243C131.487 43.1333 130.971 41.7584 130.971 40.0995C130.971 38.4555 131.487 37.0955 132.519 36.0194ZM150.696 34.6071V36.8489C150.382 36.8041 150.076 36.7816 149.777 36.7816C147.802 36.7816 146.815 37.8876 146.815 40.0995V45.5021H144.707V34.7192H146.771V36.6023C147.429 35.2274 148.505 34.5399 150.001 34.5399C150.24 34.5399 150.472 34.5623 150.696 34.6071ZM154.203 39.001H160.103C160.073 38.194 159.804 37.5364 159.295 37.0282C158.787 36.5052 158.069 36.2436 157.141 36.2436C156.304 36.2436 155.616 36.5201 155.077 37.0731C154.539 37.6111 154.247 38.2537 154.203 39.001ZM160.417 41.8032L162.234 42.4309C161.92 43.4322 161.337 44.2542 160.484 44.8968C159.632 45.5245 158.6 45.8384 157.388 45.8384C155.878 45.8384 154.591 45.3228 153.53 44.2916C152.483 43.2454 151.959 41.8406 151.959 40.077C151.959 38.4331 152.468 37.0731 153.485 35.997C154.502 34.921 155.713 34.383 157.119 34.383C158.749 34.383 160.02 34.8986 160.933 35.9298C161.845 36.946 162.301 38.3135 162.301 40.0322C162.301 40.3012 162.286 40.5254 162.256 40.7047H154.135C154.15 41.6612 154.464 42.4458 155.077 43.0586C155.706 43.6713 156.476 43.9777 157.388 43.9777C158.929 43.9777 159.938 43.2529 160.417 41.8032Z" fill="white"/>
<path opacity="0.6" d="M63.2628 19.856V15.9873H64.2114C65.2028 15.9873 66.0232 16.6108 66.0232 17.9259C66.0232 19.2411 65.1942 19.856 64.2028 19.856H63.2628ZM64.2456 20.9491C65.9719 20.9491 67.2453 19.8389 67.2453 17.9259C67.2453 16.013 65.9805 14.8942 64.2541 14.8942H62.0834V20.9491H64.2456ZM70.1992 17.9174C70.1992 16.551 71.1564 15.9019 72.088 15.9019C73.028 15.9019 73.9852 16.551 73.9852 17.9174C73.9852 19.2838 73.028 19.9328 72.088 19.9328C71.1564 19.9328 70.1992 19.2838 70.1992 17.9174ZM68.9771 17.9259C68.9771 19.8731 70.4471 21.0772 72.088 21.0772C73.7374 21.0772 75.2073 19.8731 75.2073 17.9259C75.2073 15.9703 73.7374 14.7661 72.088 14.7661C70.4471 14.7661 68.9771 15.9703 68.9771 17.9259ZM82.781 19.0788L81.4307 14.8942H80.2086L78.8669 19.0618L77.7558 14.8942H76.5081L78.1917 20.9491H79.4224L80.8068 16.6364L82.1913 20.9491H83.4049L85.08 14.8942H83.875L82.781 19.0788ZM92.1164 20.9491V14.8942H90.9371V18.8995L88.4159 14.8942H86.946V20.9491H88.1253V16.6535L90.8772 20.9491H92.1164ZM98.4459 20.9491V19.8218H95.7453V14.8942H94.5659V20.9491H98.4459ZM101.079 17.9174C101.079 16.551 102.036 15.9019 102.968 15.9019C103.908 15.9019 104.865 16.551 104.865 17.9174C104.865 19.2838 103.908 19.9328 102.968 19.9328C102.036 19.9328 101.079 19.2838 101.079 17.9174ZM99.8571 17.9259C99.8571 19.8731 101.327 21.0772 102.968 21.0772C104.617 21.0772 106.087 19.8731 106.087 17.9259C106.087 15.9703 104.617 14.7661 102.968 14.7661C101.327 14.7661 99.8571 15.9703 99.8571 17.9259ZM111.997 20.9491H113.279L110.971 14.8942H109.604L107.279 20.9491H108.527L109.031 19.5656H111.493L111.997 20.9491ZM110.262 16.2008L111.099 18.4896H109.424L110.262 16.2008ZM116.301 19.856V15.9873H117.25C118.241 15.9873 119.061 16.6108 119.061 17.9259C119.061 19.2411 118.232 19.856 117.241 19.856H116.301ZM117.284 20.9491C119.01 20.9491 120.283 19.8389 120.283 17.9259C120.283 16.013 119.019 14.8942 117.292 14.8942H115.121V20.9491H117.284ZM126.418 17.9174C126.418 16.551 127.375 15.9019 128.306 15.9019C129.246 15.9019 130.204 16.551 130.204 17.9174C130.204 19.2838 129.246 19.9328 128.306 19.9328C127.375 19.9328 126.418 19.2838 126.418 17.9174ZM125.195 17.9259C125.195 19.8731 126.665 21.0772 128.306 21.0772C129.956 21.0772 131.426 19.8731 131.426 17.9259C131.426 15.9703 129.956 14.7661 128.306 14.7661C126.665 14.7661 125.195 15.9703 125.195 17.9259ZM138.687 20.9491V14.8942H137.507V18.8995L134.986 14.8942H133.516V20.9491H134.696V16.6535L137.448 20.9491H138.687ZM148.778 16.013V14.8942H143.761V16.013H145.675V20.9491H146.863V16.013H148.778ZM155.684 20.9491V14.8942H154.496V17.3281H151.855V14.8942H150.676V20.9491H151.855V18.4383H154.496V20.9491H155.684ZM161.932 20.9491V19.8389H159.316V18.4383H161.684V17.3879H159.316V16.0044H161.932V14.8942H158.137V20.9491H161.932Z" fill="white"/>
<path d="M47.3686 39.1152C46.6749 40.6504 46.3437 41.3356 45.4504 42.692C44.2058 44.5862 42.4498 46.9454 40.2738 46.9653C38.341 46.9834 37.8442 45.7084 35.2202 45.7237C32.5963 45.7391 32.0494 46.9881 30.1165 46.97C27.9405 46.9507 26.278 44.8203 25.0321 42.9248C21.5495 37.6273 21.1856 31.4111 23.3335 28.1066C24.8599 25.7566 27.2689 24.3836 29.533 24.3836C31.8384 24.3836 33.288 25.6466 35.1949 25.6466C37.0443 25.6466 38.1707 24.3816 40.8367 24.3816C42.8518 24.3816 44.987 25.4778 46.5086 27.3719C41.5231 30.1014 42.3337 37.213 47.3686 39.1152Z" fill="white"/>
<path d="M39.0953 21.0663C40.0641 19.824 40.7985 18.0713 40.5314 16.2786C38.9491 16.3867 37.0996 17.3928 36.0193 18.7038C35.0385 19.8935 34.2286 21.6582 34.5437 23.3734C36.2697 23.4276 38.0571 22.3967 39.0953 21.0663Z" fill="white"/>
<defs>
<linearGradient id="paint0_linear_71_356" x1="1" y1="1" x2="181.127" y2="81.7836" gradientUnits="userSpaceOnUse">
<stop stop-color="#6CD5F7"/>
<stop offset="0.505208" stop-color="#F89D5C"/>
<stop offset="1" stop-color="#5B6AF0"/>
</linearGradient>
</defs>
</svg>
