<svg width="204" height="63" viewBox="0 0 204 63" fill="none" xmlns="http://www.w3.org/2000/svg">
<rect x="1" y="1" width="202" height="61" rx="10" fill="black" stroke="url(#paint0_linear_71_362)" stroke-width="2"/>
<path d="M79.7839 45.5019H78.011L77.809 43.2601C77.42 43.9625 76.7842 44.5678 75.9015 45.0759C75.0188 45.5841 73.9566 45.8381 72.7148 45.8381C71.3534 45.8381 70.0967 45.5318 68.9447 44.919C67.7927 44.2913 66.8427 43.3348 66.0946 42.0495C65.3615 40.7643 64.995 39.2623 64.995 37.5436C64.995 35.8249 65.384 34.3229 66.1619 33.0376C66.9399 31.7524 67.9124 30.8034 69.0793 30.1906C70.2612 29.5779 71.5254 29.2715 72.8719 29.2715C74.5775 29.2715 76.0586 29.7124 77.3153 30.5941C78.587 31.4609 79.4547 32.6192 79.9185 34.0689L77.9212 34.9207C77.5622 33.77 76.9338 32.8807 76.0362 32.253C75.1535 31.6104 74.0987 31.2891 72.8719 31.2891C71.331 31.2891 70.0069 31.8346 68.8998 32.9256C67.7927 34.0166 67.2391 35.5559 67.2391 37.5436C67.2391 39.5462 67.7777 41.1005 68.8549 42.2065C69.9471 43.2975 71.2561 43.843 72.7822 43.843C73.62 43.843 74.3605 43.7085 75.0039 43.4394C75.6621 43.1704 76.1708 42.8192 76.5299 42.3858C76.9039 41.9375 77.1807 41.4891 77.3602 41.0408C77.5547 40.5924 77.6669 40.144 77.6968 39.6957H72.1762V37.7229H79.7839V45.5019ZM85.1619 42.9463C85.8202 43.6188 86.6206 43.955 87.5631 43.955C88.5057 43.955 89.2986 43.6188 89.9419 42.9463C90.6002 42.2588 90.9293 41.3098 90.9293 40.0992C90.9293 38.9036 90.6002 37.9695 89.9419 37.297C89.2986 36.6095 88.5057 36.2658 87.5631 36.2658C86.6206 36.2658 85.8202 36.6095 85.1619 37.297C84.5186 37.9695 84.1969 38.9036 84.1969 40.0992C84.1969 41.3098 84.5186 42.2588 85.1619 42.9463ZM83.591 36.0192C84.6383 34.9282 85.9623 34.3827 87.5631 34.3827C89.164 34.3827 90.4805 34.9282 91.5128 36.0192C92.5601 37.0952 93.0837 38.4552 93.0837 40.0992C93.0837 41.7581 92.5676 43.1331 91.5353 44.2241C90.503 45.3001 89.1789 45.8381 87.5631 45.8381C85.9474 45.8381 84.6233 45.3001 83.591 44.2241C82.5587 43.1331 82.0425 41.7581 82.0425 40.0992C82.0425 38.4552 82.5587 37.0952 83.591 36.0192ZM98.0044 42.9463C98.6626 43.6188 99.4631 43.955 100.406 43.955C101.348 43.955 102.141 43.6188 102.784 42.9463C103.443 42.2588 103.772 41.3098 103.772 40.0992C103.772 38.9036 103.443 37.9695 102.784 37.297C102.141 36.6095 101.348 36.2658 100.406 36.2658C99.4631 36.2658 98.6626 36.6095 98.0044 37.297C97.361 37.9695 97.0394 38.9036 97.0394 40.0992C97.0394 41.3098 97.361 42.2588 98.0044 42.9463ZM96.4335 36.0192C97.4807 34.9282 98.8048 34.3827 100.406 34.3827C102.006 34.3827 103.323 34.9282 104.355 36.0192C105.403 37.0952 105.926 38.4552 105.926 40.0992C105.926 41.7581 105.41 43.1331 104.378 44.2241C103.345 45.3001 102.021 45.8381 100.406 45.8381C98.7898 45.8381 97.4658 45.3001 96.4335 44.2241C95.4012 43.1331 94.885 41.7581 94.885 40.0992C94.885 38.4552 95.4012 37.0952 96.4335 36.0192ZM107.84 46.0847L109.882 45.614C109.957 46.3762 110.263 47.0038 110.802 47.497C111.341 48.0052 112.014 48.2592 112.822 48.2592C115.021 48.2592 116.121 47.0935 116.121 44.7621V43.2153C115.851 43.7383 115.425 44.1643 114.841 44.4931C114.273 44.8219 113.6 44.9863 112.822 44.9863C111.385 44.9863 110.196 44.5005 109.253 43.5291C108.326 42.5427 107.862 41.2873 107.862 39.7629C107.862 38.2834 108.326 37.0429 109.253 36.0416C110.181 35.0253 111.37 34.5172 112.822 34.5172C114.467 34.5172 115.574 35.0851 116.143 36.221V34.719H118.23V44.6948C118.23 45.4122 118.133 46.0773 117.939 46.69C117.759 47.3177 117.467 47.8931 117.063 48.4162C116.659 48.9392 116.091 49.3502 115.358 49.6491C114.639 49.948 113.794 50.0975 112.822 50.0975C111.49 50.0975 110.361 49.7164 109.433 48.9542C108.505 48.2069 107.974 47.2504 107.84 46.0847ZM113.136 43.2153C114.048 43.2153 114.789 42.9014 115.358 42.2737C115.926 41.6311 116.21 40.7942 116.21 39.7629C116.21 38.7317 115.926 37.9023 115.358 37.2746C114.789 36.6319 114.048 36.3106 113.136 36.3106C112.208 36.3106 111.453 36.6245 110.869 37.2522C110.301 37.8799 110.016 38.7168 110.016 39.7629C110.016 40.824 110.293 41.6684 110.847 42.2961C111.415 42.9089 112.178 43.2153 113.136 43.2153ZM123.708 45.5019H121.599V29.2715H123.708V45.5019ZM128.666 39.0007H134.568C134.538 38.1937 134.268 37.5361 133.76 37.028C133.251 36.5049 132.533 36.2434 131.605 36.2434C130.768 36.2434 130.079 36.5199 129.541 37.0728C129.002 37.6109 128.71 38.2535 128.666 39.0007ZM134.882 41.803L136.7 42.4306C136.385 43.432 135.802 44.2539 134.949 44.8966C134.096 45.5243 133.064 45.8381 131.852 45.8381C130.341 45.8381 129.055 45.3225 127.992 44.2913C126.945 43.2452 126.421 41.8403 126.421 40.0768C126.421 38.4328 126.93 37.0728 127.947 35.9968C128.965 34.9207 130.177 34.3827 131.583 34.3827C133.214 34.3827 134.485 34.8983 135.398 35.9295C136.311 36.9458 136.767 38.3133 136.767 40.032C136.767 40.301 136.752 40.5251 136.722 40.7045H128.598C128.613 41.661 128.927 42.4456 129.541 43.0583C130.169 43.6711 130.94 43.9775 131.852 43.9775C133.393 43.9775 134.403 43.2526 134.882 41.803ZM147.494 37.028H150.681C151.623 37.028 152.371 36.7889 152.925 36.3106C153.478 35.8174 153.755 35.1599 153.755 34.3379C153.755 33.5009 153.478 32.8359 152.925 32.3427C152.371 31.8346 151.623 31.5805 150.681 31.5805H147.494V37.028ZM151.084 39.0007H147.494V45.5019H145.295V29.6077H151.084C152.536 29.6077 153.718 30.0561 154.63 30.9528C155.543 31.8495 155.999 32.9704 155.999 34.3155C155.999 35.6755 155.543 36.7963 154.63 37.6781C153.718 38.5599 152.536 39.0007 151.084 39.0007ZM160.351 45.5019H158.241V29.2715H160.351V45.5019ZM163.266 42.61C163.266 41.6834 163.565 40.9436 164.164 40.3906C164.762 39.8227 165.555 39.4715 166.542 39.337L169.46 38.9111C170.013 38.8364 170.29 38.5673 170.29 38.104C170.29 37.5361 170.096 37.0728 169.707 36.7141C169.318 36.3555 168.734 36.1761 167.956 36.1761C167.238 36.1761 166.669 36.3779 166.251 36.7814C165.832 37.17 165.585 37.693 165.51 38.3506L163.49 37.8799C163.595 36.8487 164.066 36.0117 164.904 35.3691C165.742 34.7115 166.744 34.3827 167.911 34.3827C169.437 34.3827 170.567 34.7563 171.3 35.5036C172.033 36.2359 172.4 37.1774 172.4 38.3282V43.7309C172.4 44.3735 172.444 44.9638 172.534 45.5019H170.47C170.395 45.0535 170.357 44.5678 170.357 44.0447C170.058 44.523 169.617 44.9414 169.033 45.3001C168.465 45.6588 167.747 45.8381 166.879 45.8381C165.817 45.8381 164.949 45.5243 164.276 44.8966C163.602 44.2539 163.266 43.4917 163.266 42.61ZM167.171 44.0671C168.113 44.0671 168.869 43.8131 169.437 43.3049C170.006 42.7968 170.29 41.9898 170.29 40.8838V40.3906L166.991 40.8838C166.512 40.9586 166.131 41.1304 165.847 41.3994C165.562 41.6684 165.42 42.0346 165.42 42.4979C165.42 42.9164 165.577 43.2825 165.892 43.5964C166.221 43.9102 166.647 44.0671 167.171 44.0671ZM178.161 50.0078H175.849L178.542 44.3137L173.897 34.719H176.32L179.687 42.1616L182.918 34.719H185.185L178.161 50.0078Z" fill="white"/>
<path opacity="0.6" d="M71.2347 20.9491V17.7978H68.2083V18.8226H70.1233C70.0549 19.2496 69.6189 20.0012 68.499 20.0012C67.4816 20.0012 66.584 19.2923 66.584 17.9259C66.584 16.4912 67.5757 15.8678 68.4904 15.8678C69.4736 15.8678 69.978 16.4912 70.1318 17.0292L71.2603 16.6278C70.9611 15.697 70.0805 14.7661 68.4904 14.7661C66.849 14.7661 65.3871 15.9703 65.3871 17.9259C65.3871 19.8816 66.7806 21.0772 68.4135 21.0772C69.3282 21.0772 69.9267 20.6673 70.2002 20.2574L70.2772 20.9491H71.2347ZM77.8239 20.9491V19.8389H75.2079V18.4383H77.576V17.3879H75.2079V16.0044H77.8239V14.8942H74.0281V20.9491H77.8239ZM85.1697 16.013V14.8942H80.1514V16.013H82.0664V20.9491H83.2547V16.013H85.1697ZM92.5152 20.9491V14.8942H91.3183V20.9491H92.5152ZM99.9637 16.013V14.8942H94.9454V16.013H96.8604V20.9491H98.0487V16.013H99.9637ZM106.976 17.9174C106.976 16.551 107.933 15.9019 108.865 15.9019C109.805 15.9019 110.763 16.551 110.763 17.9174C110.763 19.2838 109.805 19.9328 108.865 19.9328C107.933 19.9328 106.976 19.2838 106.976 17.9174ZM105.753 17.9259C105.753 19.8731 107.224 21.0772 108.865 21.0772C110.515 21.0772 111.985 19.8731 111.985 17.9259C111.985 15.9703 110.515 14.7661 108.865 14.7661C107.224 14.7661 105.753 15.9703 105.753 17.9259ZM119.784 20.9491V14.8942H118.604V18.8995L116.082 14.8942H114.611V20.9491H115.791V16.6535L118.544 20.9491H119.784Z" fill="white"/>
<path d="M30.9199 45.0649C30.2869 45.4735 29.5267 45.5971 28.8135 45.4288L41.3455 32.9102L45.4071 36.9674L30.9199 45.0649Z" fill="white"/>
<path d="M27.2582 44.4114C26.9087 43.9473 26.7075 43.3773 26.7075 42.7744V20.4749C26.7075 19.872 26.9087 19.302 27.2582 18.8379L40.0585 31.6246L27.2582 44.4114Z" fill="white"/>
<path d="M50.7082 34.0045L47.0578 36.0447L42.6327 31.6243L47.0581 27.2036L50.7088 29.244C51.5834 29.7335 52.1055 30.6233 52.1055 31.6243C52.1055 32.6253 51.5834 33.5149 50.7082 34.0045Z" fill="white"/>
<path d="M41.3456 30.3393L28.8144 17.8214C29.0198 17.773 29.2289 17.7471 29.4379 17.7471C29.9547 17.7471 30.4696 17.8939 30.92 18.1845L45.4074 26.2819L41.3456 30.3393Z" fill="white"/>
<defs>
<linearGradient id="paint0_linear_71_362" x1="1" y1="1" x2="189.037" y2="91.1313" gradientUnits="userSpaceOnUse">
<stop stop-color="#6CD5F7"/>
<stop offset="0.505208" stop-color="#F89D5C"/>
<stop offset="1" stop-color="#5B6AF0"/>
</linearGradient>
</defs>
</svg>
