<svg width="116" height="38" viewBox="0 0 116 38" fill="none" xmlns="http://www.w3.org/2000/svg">
<path d="M57.408 21.696C57.616 21.696 57.776 21.8 57.888 22.008C58.016 22.2 58.08 22.448 58.08 22.752C58.08 23.12 58.024 23.408 57.912 23.616C57.8 23.824 57.624 24.008 57.384 24.168C56.44 24.792 54.936 25.816 52.872 27.24C52.248 30.552 51.44 33.16 50.448 35.064C49.456 36.968 48.2 37.92 46.68 37.92C45.864 37.92 45.2 37.664 44.688 37.152C44.176 36.656 43.92 36 43.92 35.184C43.92 34.432 44.088 33.672 44.424 32.904C44.76 32.136 45.384 31.248 46.296 30.24C47.224 29.232 48.528 28.08 50.208 26.784L50.28 26.328C49.016 26.856 47.776 27.12 46.56 27.12C44.768 27.12 43.192 26.776 41.832 26.088C40.472 25.384 39.416 24.392 38.664 23.112C37.912 21.832 37.536 20.344 37.536 18.648C37.536 16.28 37.984 14.192 38.88 12.384C39.776 10.56 41.008 9.152 42.576 8.16C44.16 7.152 45.928 6.648 47.88 6.648C49.752 6.648 51.152 7.088 52.08 7.968C53.024 8.832 53.496 9.984 53.496 11.424C53.496 12.368 53.32 13.128 52.968 13.704C52.632 14.264 52.144 14.544 51.504 14.544C51.072 14.544 50.72 14.44 50.448 14.232C50.192 14.024 50.064 13.736 50.064 13.368C50.064 13.208 50.096 12.936 50.16 12.552C50.256 12.104 50.304 11.752 50.304 11.496C50.304 10.824 50.096 10.304 49.68 9.936C49.28 9.568 48.6 9.384 47.64 9.384C46.472 9.384 45.384 9.72 44.376 10.392C43.384 11.064 42.584 12.072 41.976 13.416C41.368 14.744 41.064 16.344 41.064 18.216C41.064 20.136 41.584 21.624 42.624 22.68C43.68 23.72 45.2 24.24 47.184 24.24C48.288 24.24 49.44 23.992 50.64 23.496L50.976 20.568H48.528C48.08 20.568 47.736 20.464 47.496 20.256C47.256 20.032 47.136 19.672 47.136 19.176C47.136 18.728 47.256 18.376 47.496 18.12C47.736 17.864 48.056 17.736 48.456 17.736H52.944C53.296 17.736 53.584 17.856 53.808 18.096C54.048 18.32 54.144 18.648 54.096 19.08C54.048 19.592 53.888 20.752 53.616 22.56L53.352 24.384C54.632 23.424 55.8 22.592 56.856 21.888C57.064 21.76 57.248 21.696 57.408 21.696ZM46.944 35.592C47.36 35.592 47.816 35.12 48.312 34.176C48.808 33.232 49.272 31.712 49.704 29.616C48.488 30.656 47.608 31.592 47.064 32.424C46.536 33.272 46.272 34.016 46.272 34.656C46.272 35.28 46.496 35.592 46.944 35.592ZM58.0513 27.12C57.4433 27.12 57.0113 26.8 56.7553 26.16C56.5153 25.52 56.3953 24.496 56.3953 23.088C56.3953 21.008 56.6913 19.032 57.2833 17.16C57.4273 16.696 57.6593 16.36 57.9793 16.152C58.3153 15.928 58.7793 15.816 59.3713 15.816C59.6913 15.816 59.9153 15.856 60.0433 15.936C60.1713 16.016 60.2353 16.168 60.2353 16.392C60.2353 16.648 60.1153 17.224 59.8753 18.12C59.7153 18.76 59.5873 19.32 59.4913 19.8C59.3953 20.28 59.3153 20.872 59.2513 21.576C59.7793 20.2 60.3713 19.08 61.0273 18.216C61.6833 17.352 62.3233 16.736 62.9473 16.368C63.5873 16 64.1713 15.816 64.6993 15.816C65.7393 15.816 66.2593 16.336 66.2593 17.376C66.2593 17.584 66.1873 18.088 66.0433 18.888C65.9153 19.528 65.8513 19.928 65.8513 20.088C65.8513 20.648 66.0513 20.928 66.4513 20.928C66.8993 20.928 67.4753 20.576 68.1793 19.872C68.3873 19.664 68.6033 19.56 68.8273 19.56C69.0353 19.56 69.1953 19.656 69.3073 19.848C69.4353 20.024 69.4993 20.264 69.4993 20.568C69.4993 21.16 69.3393 21.624 69.0193 21.96C68.5713 22.424 68.0433 22.824 67.4353 23.16C66.8433 23.48 66.2113 23.64 65.5393 23.64C64.6913 23.64 64.0433 23.424 63.5953 22.992C63.1633 22.56 62.9473 21.976 62.9473 21.24C62.9473 21 62.9713 20.76 63.0193 20.52C63.0513 20.2 63.0673 19.984 63.0673 19.872C63.0673 19.616 62.9793 19.488 62.8033 19.488C62.5633 19.488 62.2433 19.76 61.8433 20.304C61.4593 20.832 61.0753 21.536 60.6913 22.416C60.3073 23.296 59.9953 24.224 59.7553 25.2C59.5793 25.952 59.3713 26.464 59.1313 26.736C58.9073 26.992 58.5473 27.12 58.0513 27.12ZM79.5092 19.632C79.7172 19.632 79.8772 19.736 79.9892 19.944C80.1012 20.152 80.1572 20.416 80.1572 20.736C80.1572 21.504 79.9252 21.96 79.4612 22.104C78.5012 22.44 77.4452 22.632 76.2932 22.68C75.9892 24.024 75.3892 25.104 74.4932 25.92C73.5972 26.72 72.5812 27.12 71.4452 27.12C70.4852 27.12 69.6612 26.888 68.9732 26.424C68.3012 25.96 67.7892 25.344 67.4372 24.576C67.0852 23.808 66.9092 22.976 66.9092 22.08C66.9092 20.864 67.1412 19.784 67.6052 18.84C68.0692 17.88 68.7092 17.136 69.5252 16.608C70.3412 16.064 71.2452 15.792 72.2372 15.792C73.4532 15.792 74.4292 16.216 75.1652 17.064C75.9172 17.896 76.3572 18.928 76.4852 20.16C77.2372 20.112 78.1332 19.952 79.1732 19.68C79.3012 19.648 79.4132 19.632 79.5092 19.632ZM71.6372 24.576C72.1492 24.576 72.5892 24.368 72.9572 23.952C73.3412 23.536 73.5972 22.936 73.7252 22.152C73.2292 21.816 72.8452 21.376 72.5732 20.832C72.3172 20.288 72.1892 19.712 72.1892 19.104C72.1892 18.848 72.2132 18.592 72.2612 18.336H72.1412C71.5012 18.336 70.9652 18.648 70.5332 19.272C70.1172 19.88 69.9092 20.744 69.9092 21.864C69.9092 22.744 70.0772 23.416 70.4132 23.88C70.7652 24.344 71.1732 24.576 71.6372 24.576ZM96.2357 19.704C96.2837 19.688 96.3637 19.68 96.4757 19.68C96.7157 19.68 96.8997 19.76 97.0277 19.92C97.1557 20.08 97.2197 20.296 97.2197 20.568C97.2197 21.064 97.1237 21.456 96.9317 21.744C96.7397 22.016 96.4517 22.216 96.0677 22.344C95.3317 22.584 94.5477 22.704 93.7157 22.704C93.0117 22.704 92.3477 22.608 91.7237 22.416C91.2597 23.168 90.7477 23.944 90.1877 24.744C89.5477 25.656 88.9957 26.28 88.5317 26.616C88.0837 26.952 87.5717 27.12 86.9957 27.12C86.3557 27.12 85.8677 26.872 85.5317 26.376C85.2117 25.88 85.0117 25.064 84.9317 23.928L84.8117 22.176C84.3157 23.52 83.8677 24.544 83.4677 25.248C83.0837 25.952 82.6917 26.44 82.2917 26.712C81.9077 26.984 81.4517 27.12 80.9237 27.12C80.2677 27.12 79.7477 26.864 79.3637 26.352C78.9957 25.84 78.7637 25.032 78.6677 23.928C78.4757 21.688 78.3797 19.728 78.3797 18.048V17.208C78.3957 16.68 78.5397 16.312 78.8117 16.104C79.0837 15.896 79.4917 15.792 80.0357 15.792C80.4517 15.792 80.7557 15.888 80.9477 16.08C81.1557 16.256 81.2597 16.56 81.2597 16.992C81.2597 18.832 81.3717 21.224 81.5957 24.168C82.6837 21.88 83.6837 19.496 84.5957 17.016C84.7717 16.536 84.9797 16.216 85.2197 16.056C85.4757 15.88 85.7797 15.792 86.1317 15.792C86.5637 15.792 86.8597 15.88 87.0197 16.056C87.1957 16.232 87.2837 16.544 87.2837 16.992C87.2837 18.832 87.3957 21.224 87.6197 24.168C88.5797 22.744 89.2997 21.608 89.7797 20.76C89.5397 20.296 89.4197 19.744 89.4197 19.104C89.4197 18.56 89.5397 18.032 89.7797 17.52C90.0197 17.008 90.3477 16.592 90.7637 16.272C91.1797 15.952 91.6517 15.792 92.1797 15.792C92.6437 15.792 93.0197 15.96 93.3077 16.296C93.5957 16.616 93.7397 17.088 93.7397 17.712C93.7397 18.432 93.5477 19.256 93.1637 20.184C93.7717 20.152 94.5797 20.032 95.5877 19.824L96.2357 19.704ZM105.84 21.648C106.048 21.648 106.208 21.744 106.32 21.936C106.448 22.128 106.512 22.392 106.512 22.728C106.512 23.368 106.36 23.864 106.056 24.216C105.464 24.936 104.624 25.6 103.536 26.208C102.464 26.816 101.312 27.12 100.08 27.12C98.4004 27.12 97.0964 26.664 96.1684 25.752C95.2404 24.84 94.7764 23.592 94.7764 22.008C94.7764 20.904 95.0084 19.88 95.4724 18.936C95.9364 17.976 96.5764 17.216 97.3924 16.656C98.2244 16.096 99.1604 15.816 100.2 15.816C101.128 15.816 101.872 16.096 102.432 16.656C102.992 17.2 103.272 17.944 103.272 18.888C103.272 19.992 102.872 20.944 102.072 21.744C101.288 22.528 99.9524 23.152 98.0644 23.616C98.4644 24.352 99.2244 24.72 100.344 24.72C101.064 24.72 101.88 24.472 102.792 23.976C103.72 23.464 104.52 22.8 105.192 21.984C105.384 21.76 105.6 21.648 105.84 21.648ZM99.7924 18.168C99.2004 18.168 98.6964 18.512 98.2804 19.2C97.8804 19.888 97.6804 20.72 97.6804 21.696V21.744C98.6244 21.52 99.3684 21.184 99.9124 20.736C100.456 20.288 100.728 19.768 100.728 19.176C100.728 18.872 100.64 18.632 100.464 18.456C100.304 18.264 100.08 18.168 99.7924 18.168ZM114.254 19.104C114.606 19.104 114.902 19.232 115.142 19.488C115.398 19.728 115.526 20.032 115.526 20.4C115.526 20.608 115.478 20.832 115.382 21.072C115.126 21.664 114.766 22.16 114.302 22.56C113.838 22.96 113.326 23.16 112.766 23.16C112.318 23.16 111.934 23 111.614 22.68C111.31 22.36 111.158 21.928 111.158 21.384C111.158 21.08 111.174 20.752 111.206 20.4C111.238 20.144 111.254 19.968 111.254 19.872C111.254 19.744 111.222 19.648 111.158 19.584C111.11 19.52 111.046 19.488 110.966 19.488C110.742 19.488 110.438 19.76 110.054 20.304C109.67 20.832 109.286 21.536 108.902 22.416C108.518 23.296 108.206 24.224 107.966 25.2C107.79 25.968 107.59 26.48 107.366 26.736C107.142 26.992 106.774 27.12 106.262 27.12C105.654 27.12 105.222 26.8 104.966 26.16C104.726 25.52 104.606 24.496 104.606 23.088C104.606 21.008 104.902 19.032 105.494 17.16C105.638 16.696 105.87 16.36 106.19 16.152C106.526 15.928 106.99 15.816 107.582 15.816C107.902 15.816 108.126 15.856 108.254 15.936C108.382 16.016 108.446 16.168 108.446 16.392C108.446 16.648 108.326 17.224 108.086 18.12C107.926 18.76 107.798 19.32 107.702 19.8C107.606 20.28 107.526 20.872 107.462 21.576C107.99 20.2 108.582 19.08 109.238 18.216C109.894 17.352 110.534 16.736 111.158 16.368C111.782 16 112.35 15.816 112.862 15.816C113.326 15.816 113.678 15.952 113.918 16.224C114.174 16.48 114.302 16.864 114.302 17.376C114.302 17.68 114.214 18.256 114.038 19.104H114.254Z" fill="#1D2A59"/>
<path d="M6.725 34C9.42499 28.6 16.175 27.25 16.175 21.85V15.1C16.175 16.5322 15.6061 17.9057 14.5934 18.9184C13.5807 19.9311 12.2072 20.5 10.775 20.5L4.7 24.55L2 21.85L9.42499 11.05V7.00003C12.615 6.99457 15.7544 7.79804 18.5496 9.33533C21.3448 10.8726 23.7046 13.0935 25.4084 15.7905C27.1122 18.4874 28.1043 21.5723 28.2921 24.7568C28.4799 27.9414 27.8572 31.1215 26.4822 34" stroke="#269FC6" stroke-width="3" stroke-linecap="round" stroke-linejoin="round"/>
</svg>
