<svg width="1600" height="791" viewBox="0 0 1600 791" fill="none" xmlns="http://www.w3.org/2000/svg">
<g opacity="0.08">
<path d="M-101.649 133.265C-64.1427 97.828 49.9664 32.5569 206.351 54.9688C401.831 82.9837 571.593 186.582 750.565 228.832C929.537 271.082 1143.89 289.368 1269.86 289.273C1395.82 289.177 1596.35 347.617 1636.26 443.473" stroke="white" stroke-width="2"/>
<path d="M-103.556 157.164C-66.0499 121.727 48.0591 56.4559 204.443 78.8678C399.924 106.883 569.686 210.481 748.658 252.731C927.63 294.981 1141.99 313.267 1267.95 313.172C1393.92 313.077 1594.44 371.516 1634.35 467.372" stroke="white" stroke-width="2"/>
<path d="M-105.464 181.063C-67.9571 145.626 46.1519 80.3551 202.536 102.767C398.017 130.782 567.778 234.38 746.751 276.63C925.723 318.881 1140.08 337.166 1266.04 337.071C1392.01 336.976 1592.54 395.416 1632.45 491.271" stroke="white" stroke-width="2"/>
<path d="M-107.371 204.962C-69.8644 169.525 44.2447 104.254 200.629 126.666C396.109 154.681 565.871 258.279 744.843 300.529C923.816 342.78 1138.17 361.065 1264.14 360.97C1390.1 360.875 1590.63 419.315 1630.54 515.17" stroke="white" stroke-width="2"/>
<path d="M-109.278 228.861C-71.7716 193.424 42.3375 128.153 198.722 150.565C394.202 178.58 563.964 282.178 742.936 324.429C921.908 366.679 1136.27 384.964 1262.23 384.869C1388.19 384.774 1588.72 443.214 1628.63 539.07" stroke="white" stroke-width="2"/>
<path d="M-111.185 252.761C-73.6788 217.324 40.4302 152.052 196.815 174.464C392.295 202.479 562.057 306.077 741.029 348.328C920.001 390.578 1134.36 408.863 1260.32 408.768C1386.29 408.673 1586.81 467.113 1626.72 562.969" stroke="white" stroke-width="2"/>
<path d="M-113.093 276.66C-75.586 241.223 38.523 175.951 194.907 198.363C390.388 226.378 560.149 329.976 739.122 372.227C918.094 414.477 1132.45 432.762 1258.42 432.667C1384.38 432.572 1584.91 491.012 1624.82 586.868" stroke="white" stroke-width="2"/>
<path d="M-115 300.558C-77.4933 265.121 36.6158 199.85 193 222.262C388.48 250.277 558.242 353.875 737.214 396.126C916.187 438.376 1130.54 456.661 1256.51 456.566C1382.47 456.471 1583 514.911 1622.91 610.767" stroke="white" stroke-width="2"/>
<path d="M-116.907 324.458C-79.4005 289.02 34.7086 223.749 191.093 246.161C386.573 274.176 556.335 377.774 735.307 420.025C914.279 462.275 1128.64 480.56 1254.6 480.465C1380.57 480.37 1581.09 538.81 1621 634.666" stroke="white" stroke-width="2"/>
<path d="M-118.814 348.357C-81.3077 312.92 32.8013 247.648 189.186 270.06C384.666 298.075 554.428 401.673 733.4 443.924C912.372 486.174 1126.73 504.459 1252.69 504.364C1378.66 504.269 1579.19 562.709 1619.1 658.565" stroke="white" stroke-width="2"/>
<path d="M-120.721 372.256C-83.2149 336.819 30.8941 271.547 187.278 293.959C382.759 321.974 552.52 425.572 731.493 467.823C910.465 510.073 1124.82 528.358 1250.79 528.263C1376.75 528.168 1577.28 586.608 1617.19 682.464" stroke="white" stroke-width="2"/>
<path d="M-122.629 396.155C-85.1223 360.718 28.9868 295.447 185.371 317.858C380.851 345.873 550.613 449.472 729.585 491.722C908.558 533.972 1122.91 552.257 1248.88 552.162C1374.84 552.067 1575.37 610.507 1615.28 706.363" stroke="white" stroke-width="2"/>
<path d="M-124.536 420.054C-87.0295 384.617 27.0795 319.346 183.464 341.757C378.944 369.772 548.706 473.371 727.678 515.621C906.65 557.871 1121.01 576.156 1246.97 576.061C1372.94 575.966 1573.46 634.406 1613.37 730.262" stroke="white" stroke-width="2"/>
<path d="M-126.443 443.953C-88.9367 408.516 25.1723 343.245 181.557 365.657C377.037 393.671 546.799 497.27 725.771 539.52C904.743 581.77 1119.1 600.056 1245.06 599.96C1371.03 599.865 1571.56 658.305 1611.47 754.161" stroke="white" stroke-width="2"/>
<path d="M-128.35 467.852C-90.844 432.415 23.2651 367.144 179.649 389.555C375.13 417.57 544.891 521.169 723.864 563.419C902.836 605.669 1117.19 623.954 1243.16 623.859C1369.12 623.764 1569.65 682.204 1609.56 778.06" stroke="white" stroke-width="2"/>
<path d="M-130.258 491.751C-92.7512 456.314 21.3578 391.043 177.742 413.455C373.222 441.469 542.984 545.068 721.957 587.318C900.929 629.568 1115.29 647.853 1241.25 647.758C1367.21 647.663 1567.74 706.103 1607.65 801.959" stroke="white" stroke-width="2"/>
<path d="M-132.165 515.65C-94.6584 480.213 19.4506 414.942 175.835 437.353C371.315 465.368 541.077 568.967 720.049 611.217C899.022 653.467 1113.38 671.752 1239.34 671.657C1365.31 671.562 1565.84 730.002 1605.74 825.858" stroke="white" stroke-width="2"/>
<path d="M-134.072 539.549C-96.5658 504.112 17.5433 438.84 173.928 461.252C369.408 489.267 539.17 592.865 718.142 635.116C897.114 677.366 1111.47 695.651 1237.44 695.556C1363.4 695.461 1563.93 753.901 1603.84 849.757" stroke="white" stroke-width="2"/>
<path d="M-135.979 563.448C-98.473 528.011 15.636 462.74 172.02 485.152C367.501 513.166 537.262 616.765 716.235 659.015C895.207 701.265 1109.56 719.551 1235.53 719.455C1361.49 719.36 1562.02 777.8 1601.93 873.656" stroke="white" stroke-width="2"/>
<path d="M-137.887 587.347C-100.38 551.91 13.7289 486.639 170.113 509.05C365.594 537.065 535.355 640.664 714.328 682.914C893.3 725.164 1107.66 743.449 1233.62 743.354C1359.59 743.259 1560.11 801.699 1600.02 897.555" stroke="white" stroke-width="2"/>
<path d="M-139.794 611.246C-102.287 575.809 11.8216 510.537 168.206 532.949C363.686 560.964 533.448 664.562 712.42 706.813C891.393 749.063 1105.75 767.348 1231.71 767.253C1357.68 767.158 1558.21 825.598 1598.12 921.454" stroke="white" stroke-width="2"/>
<path d="M-141.701 635.145C-104.195 599.707 9.91437 534.436 166.299 556.848C361.779 584.863 531.541 688.461 710.513 730.712C889.485 772.962 1103.84 791.247 1229.81 791.152C1355.77 791.057 1556.3 849.497 1596.21 945.353" stroke="white" stroke-width="2"/>
<path d="M-143.608 659.044C-106.102 623.607 8.00726 558.336 164.392 580.747C359.872 608.762 529.634 712.361 708.606 754.611C887.578 796.861 1101.94 815.146 1227.9 815.051C1353.86 814.956 1554.39 873.396 1594.3 969.252" stroke="white" stroke-width="2"/>
<path d="M-145.516 682.943C-108.009 647.506 6.10003 582.235 162.484 604.646C357.965 632.661 527.726 736.259 706.699 778.51C885.671 820.76 1100.03 839.045 1225.99 838.95C1351.96 838.855 1552.48 897.295 1592.39 993.151" stroke="white" stroke-width="2"/>
<path d="M-147.423 706.842C-109.916 671.405 4.19269 606.133 160.577 628.545C356.057 656.56 525.819 760.158 704.791 802.409C883.764 844.659 1098.12 862.944 1224.09 862.849C1350.05 862.754 1550.58 921.194 1590.49 1017.05" stroke="white" stroke-width="2"/>
<path d="M-149.33 730.74C-111.824 695.303 2.28546 630.032 158.67 652.444C354.15 680.459 523.912 784.057 702.884 826.308C881.856 868.558 1096.21 886.843 1222.18 886.748C1348.14 886.653 1548.67 945.093 1588.58 1040.95" stroke="white" stroke-width="2"/>
<path d="M-151.237 754.64C-113.731 719.203 0.378233 653.932 156.763 676.343C352.243 704.358 522.005 807.957 700.977 850.207C879.949 892.457 1094.31 910.742 1220.27 910.647C1346.24 910.552 1546.76 968.992 1586.67 1064.85" stroke="white" stroke-width="2"/>
<path d="M-153.145 778.539C-115.638 743.102 -1.52899 677.83 154.855 700.242C350.336 728.257 520.097 831.855 699.07 874.106C878.042 916.356 1092.4 934.641 1218.36 934.546C1344.33 934.451 1544.86 992.891 1584.77 1088.75" stroke="white" stroke-width="2"/>
<path d="M-155.052 802.438C-117.545 767 -3.43622 701.729 152.948 724.141C348.428 752.156 518.19 855.754 697.162 898.005C876.135 940.255 1090.49 958.54 1216.46 958.445C1342.42 958.35 1542.95 1016.79 1582.86 1112.65" stroke="white" stroke-width="2"/>
</g>
</svg>
