<svg width="17" height="16" viewBox="0 0 17 16" fill="none" xmlns="http://www.w3.org/2000/svg">
<path d="M7.70706 1.21267C8.02818 0.224357 9.42638 0.224357 9.74751 1.21267L10.8949 4.74387C11.0385 5.18586 11.4504 5.48511 11.9151 5.48511H15.628C16.6672 5.48511 17.0993 6.81488 16.2585 7.42569L13.2547 9.60809C12.8787 9.88126 12.7214 10.3654 12.865 10.8074L14.0124 14.3386C14.3335 15.327 13.2023 16.1488 12.3616 15.538L9.35781 13.3556C8.98184 13.0824 8.47272 13.0824 8.09675 13.3556L5.09293 15.538C4.25222 16.1488 3.12105 15.327 3.44217 14.3386L4.58953 10.8074C4.73314 10.3654 4.57581 9.88126 4.19984 9.60809L1.19602 7.42569C0.355309 6.81488 0.787378 5.48511 1.82655 5.48511H5.53948C6.00421 5.48511 6.41609 5.18586 6.5597 4.74387L7.70706 1.21267Z" fill="url(#paint0_linear_382_65)"/>
<defs>
<linearGradient id="paint0_linear_382_65" x1="0.75177" y1="0.471436" x2="18.6039" y2="3.16962" gradientUnits="userSpaceOnUse">
<stop stop-color="#FFB36D"/>
<stop offset="1" stop-color="#EC5353"/>
</linearGradient>
</defs>
</svg>
