<svg width="28" height="23" viewBox="0 0 28 23" fill="none" xmlns="http://www.w3.org/2000/svg">
<path d="M12.77 3.28L7.8 12.52L4.93 13.29C5.25667 12.6833 5.63 12.17 6.05 11.75C6.51667 11.33 7.00667 11.12 7.52 11.12C8.73333 11.12 9.83 11.6333 10.81 12.66C11.8367 13.6867 12.35 14.97 12.35 16.51C12.35 18.1433 11.79 19.5667 10.67 20.78C9.55 21.9467 8.17333 22.53 6.54 22.53C4.95333 22.53 3.57667 21.9467 2.41 20.78C1.24333 19.6133 0.66 18.19 0.66 16.51C0.66 15.8567 0.8 15.0867 1.08 14.2C1.36 13.2667 1.87333 12.1 2.62 10.7L8.01 0.759996L12.77 3.28ZM27.82 3.28L22.85 12.52L19.98 13.29C20.3067 12.6833 20.68 12.17 21.1 11.75C21.52 11.33 22.01 11.12 22.57 11.12C23.7833 11.12 24.88 11.6333 25.86 12.66C26.8867 13.6867 27.4 14.97 27.4 16.51C27.4 18.1433 26.8167 19.5667 25.65 20.78C24.53 21.9467 23.1533 22.53 21.52 22.53C19.98 22.53 18.6267 21.9467 17.46 20.78C16.2933 19.6133 15.71 18.19 15.71 16.51C15.71 15.8567 15.85 15.0867 16.13 14.2C16.41 13.2667 16.9233 12.1 17.67 10.7L23.06 0.759996L27.82 3.28Z" fill="url(#paint0_linear_68_252)"/>
<defs>
<linearGradient id="paint0_linear_68_252" x1="-2" y1="-24" x2="35.6907" y2="-22.1996" gradientUnits="userSpaceOnUse">
<stop stop-color="#CEE9C1"/>
<stop offset="1" stop-color="#83C8DE"/>
</linearGradient>
</defs>
</svg>
