<svg width="12" height="14" viewBox="0 0 12 14" fill="none" xmlns="http://www.w3.org/2000/svg">
<path d="M2.33321 10.5002C2.33321 10.821 2.5957 11.0835 2.91651 11.0835H3.49982V13.125C3.49982 13.6092 3.89063 14 4.37477 14C4.85891 14 5.24973 13.6092 5.24973 13.125V11.0835H6.41633V13.125C6.41633 13.6092 6.80715 14 7.29129 14C7.77543 14 8.16624 13.6092 8.16624 13.125V11.0835H8.74954C9.07036 11.0835 9.33285 10.821 9.33285 10.5002V4.66715H2.33321V10.5002ZM0.874954 4.66715C0.390813 4.66715 0 5.05797 0 5.54211V9.62523C0 10.1094 0.390813 10.5002 0.874954 10.5002C1.3591 10.5002 1.74991 10.1094 1.74991 9.62523V5.54211C1.74991 5.05797 1.3591 4.66715 0.874954 4.66715ZM10.7911 4.66715C10.307 4.66715 9.91615 5.05797 9.91615 5.54211V9.62523C9.91615 10.1094 10.307 10.5002 10.7911 10.5002C11.2752 10.5002 11.6661 10.1094 11.6661 9.62523V5.54211C11.6661 5.05797 11.2752 4.66715 10.7911 4.66715ZM7.89209 1.26066L8.6533 0.499453C8.76704 0.385709 8.76704 0.201969 8.6533 0.0882246C8.53956 -0.0255195 8.35581 -0.0255195 8.24207 0.0882246L7.37878 0.948596C6.91214 0.718192 6.39008 0.584032 5.83303 0.584032C5.27306 0.584032 4.74809 0.718192 4.27853 0.951513L3.41232 0.0853081C3.29858 -0.028436 3.11484 -0.028436 3.00109 0.0853081C2.88735 0.199052 2.88735 0.382793 3.00109 0.496537L3.76522 1.26066C2.89902 1.89938 2.33321 2.92599 2.33321 4.08385H9.33285C9.33285 2.92308 8.76413 1.89646 7.89209 1.26066ZM4.66642 2.91724H4.08312V2.33394H4.66642V2.91724ZM7.58294 2.91724H6.99964V2.33394H7.58294V2.91724Z" fill="white"/>
</svg>
