<svg width="13" height="16" viewBox="0 0 13 16" fill="none" xmlns="http://www.w3.org/2000/svg">
<path d="M12.6651 11.409C12.3187 12.176 12.1534 12.5183 11.7074 13.196C11.0861 14.1423 10.2094 15.321 9.12305 15.331C8.15805 15.34 7.91005 14.703 6.60005 14.7106C5.29005 14.7183 5.01705 15.3423 4.05205 15.3333C2.96572 15.3236 2.13572 14.2593 1.51372 13.3123C-0.224946 10.6656 -0.406613 7.55997 0.665721 5.90897C1.42772 4.73497 2.63039 4.04897 3.76072 4.04897C4.91172 4.04897 5.63539 4.67997 6.58739 4.67997C7.51072 4.67997 8.07305 4.04797 9.40405 4.04797C10.4101 4.04797 11.4761 4.59564 12.2357 5.54197C9.74672 6.90564 10.1514 10.4586 12.6651 11.409Z" fill="white"/>
<path d="M8.53461 2.392C9.01828 1.77133 9.38494 0.895667 9.25161 0C8.46161 0.054 7.53828 0.556667 6.99894 1.21167C6.50928 1.806 6.10495 2.68767 6.26228 3.54467C7.12395 3.57167 8.01628 3.05667 8.53461 2.392Z" fill="white"/>
</svg>
